<svg width="16" height="16" viewBox="0 0 16 16" fill="none" xmlns="http://www.w3.org/2000/svg">
<path d="M13.7336 2.73372V4.20039C13.7336 4.73372 13.4002 5.40039 13.0669 5.73372L10.2002 8.26706C9.80025 8.60039 9.53358 9.26706 9.53358 9.80039V12.6671C9.53358 13.0671 9.26692 13.6004 8.93358 13.8004L8.00025 14.4004C7.13358 14.9337 5.93358 14.3337 5.93358 13.2671V9.73372C5.93358 9.26706 5.66692 8.66706 5.40025 8.33372L5.08692 8.00706C4.88025 7.78706 4.84025 7.45372 5.00692 7.19372L8.42025 1.71372C8.54025 1.52039 8.75358 1.40039 8.98692 1.40039H12.4002C13.1336 1.40039 13.7336 2.00039 13.7336 2.73372Z" fill="#2F2F2F"/>
<path d="M6.89994 2.42039L4.53327 6.21372C4.3066 6.58039 3.7866 6.63372 3.4866 6.32039L2.8666 5.66706C2.53327 5.33372 2.2666 4.73372 2.2666 4.33372V2.80039C2.2666 2.00039 2.8666 1.40039 3.59993 1.40039H6.33327C6.85327 1.40039 7.17327 1.97372 6.89994 2.42039Z" fill="#2F2F2F"/>
</svg>
