<svg width="22" height="22" viewBox="0 0 22 22" fill="none" xmlns="http://www.w3.org/2000/svg">
<circle cx="11" cy="11" r="11" fill="#F4F5F6"/>
<path d="M5 15.3333C5 14.4493 5.34241 13.6014 5.9519 12.9763C6.5614 12.3512 7.38805 12 8.25 12H14.75C15.612 12 16.4386 12.3512 17.0481 12.9763C17.6576 13.6014 18 14.4493 18 15.3333C18 15.7754 17.8288 16.1993 17.524 16.5118C17.2193 16.8244 16.806 17 16.375 17H6.625C6.19402 17 5.7807 16.8244 5.47595 16.5118C5.1712 16.1993 5 15.7754 5 15.3333Z" stroke="#181818" stroke-opacity="0.25" stroke-linejoin="round"/>
<path d="M11.5 9C12.8807 9 14 7.88071 14 6.5C14 5.11929 12.8807 4 11.5 4C10.1193 4 9 5.11929 9 6.5C9 7.88071 10.1193 9 11.5 9Z" stroke="#181818" stroke-opacity="0.25"/>
</svg>
