<svg width="50" height="50" viewBox="0 0 50 50" fill="none" xmlns="http://www.w3.org/2000/svg">
<circle cx="25" cy="25" r="25" fill="#50E46E"/>
<path d="M31.0957 18.8883C31.7132 18.8883 32.3149 18.9358 32.9007 19.015C31.824 14.3125 26.884 10.75 20.9465 10.75C14.2174 10.75 8.75488 15.31 8.75488 20.9308C8.75488 24.1767 10.5757 27.0425 13.4099 28.9108L11.8107 32.125L16.1807 30.2408C17.1149 30.5733 18.0965 30.8425 19.1416 30.985C18.999 30.3675 18.9199 29.7342 18.9199 29.0692C18.904 23.4642 24.3665 18.8883 31.0957 18.8883ZM24.9999 15.3258C25.1995 15.3258 25.3971 15.3651 25.5816 15.4415C25.766 15.5179 25.9335 15.6299 26.0747 15.771C26.2158 15.9122 26.3278 16.0797 26.4042 16.2642C26.4806 16.4486 26.5199 16.6462 26.5199 16.8458C26.5199 17.0454 26.4806 17.2431 26.4042 17.4275C26.3278 17.6119 26.2158 17.7795 26.0747 17.9206C25.9335 18.0618 25.766 18.1737 25.5816 18.2501C25.3971 18.3265 25.1995 18.3658 24.9999 18.3658C24.5968 18.3658 24.2101 18.2057 23.9251 17.9206C23.64 17.6356 23.4799 17.249 23.4799 16.8458C23.4799 16.4427 23.64 16.0561 23.9251 15.771C24.2101 15.486 24.5968 15.3258 24.9999 15.3258ZM16.8774 18.3817C16.4743 18.3817 16.0876 18.2215 15.8026 17.9365C15.5175 17.6514 15.3574 17.2648 15.3574 16.8617C15.3574 16.4585 15.5175 16.0719 15.8026 15.7869C16.0876 15.5018 16.4743 15.3417 16.8774 15.3417C17.2805 15.3417 17.6671 15.5018 17.9522 15.7869C18.2372 16.0719 18.3974 16.4585 18.3974 16.8617C18.3974 17.2648 18.2372 17.6514 17.9522 17.9365C17.6671 18.2215 17.2805 18.3817 16.8774 18.3817Z" fill="white"/>
<path d="M41.2451 29.0692C41.2451 24.5725 36.7009 20.9308 31.0959 20.9308C25.4909 20.9308 20.9468 24.5725 20.9468 29.0692C20.9468 33.5658 25.4909 37.2075 31.0959 37.2075C32.0143 37.2075 32.9009 37.0808 33.7401 36.8908L39.2184 39.25L37.3184 35.45C39.6934 33.9617 41.2451 31.6817 41.2451 29.0692ZM28.0401 28.5625C27.7395 28.5625 27.4456 28.4734 27.1956 28.3063C26.9457 28.1393 26.7509 27.9019 26.6358 27.6242C26.5208 27.3464 26.4907 27.0408 26.5493 26.746C26.608 26.4511 26.7527 26.1803 26.9653 25.9677C27.1779 25.7551 27.4487 25.6104 27.7436 25.5517C28.0384 25.4931 28.344 25.5232 28.6218 25.6382C28.8995 25.7533 29.1369 25.9481 29.3039 26.198C29.471 26.448 29.5601 26.7419 29.5601 27.0425C29.5759 27.8817 28.8793 28.5625 28.0401 28.5625ZM34.1359 28.5625C33.7328 28.5625 33.3462 28.4024 33.0611 28.1173C32.7761 27.8323 32.6159 27.4456 32.6159 27.0425C32.6159 26.6394 32.7761 26.2528 33.0611 25.9677C33.3462 25.6827 33.7328 25.5225 34.1359 25.5225C34.5391 25.5225 34.9257 25.6827 35.2107 25.9677C35.4958 26.2528 35.6559 26.6394 35.6559 27.0425C35.6559 27.4456 35.4958 27.8323 35.2107 28.1173C34.9257 28.4024 34.5391 28.5625 34.1359 28.5625Z" fill="white"/>
</svg>
