<svg width="25" height="20" viewBox="0 0 25 20" fill="none" xmlns="http://www.w3.org/2000/svg">
<path d="M2.14987 8.60995C8.59231 5.78751 12.8883 3.92678 15.0378 3.02777C21.175 0.460913 22.4503 0.0150233 23.2815 0.000142741C23.4643 -0.00293856 23.8731 0.0426195 24.1379 0.258661C24.3614 0.441082 24.4229 0.687507 24.4524 0.860462C24.4818 1.03342 24.5185 1.42741 24.4893 1.73527C24.1567 5.2491 22.7177 13.7763 21.9856 17.7118C21.6758 19.3771 21.0658 19.9354 20.4753 19.9901C19.1919 20.1088 18.2174 19.1373 16.9744 18.3179C15.0294 17.0359 13.9305 16.2378 12.0425 14.9867C9.86064 13.5409 11.2751 12.7462 12.5185 11.4476C12.844 11.1077 18.4985 5.93594 18.6079 5.46679C18.6216 5.40811 18.6343 5.18939 18.5051 5.0739C18.3759 4.95841 18.1851 4.99791 18.0475 5.02932C17.8524 5.07384 14.7452 7.13899 8.72584 11.2248C7.84386 11.8338 7.04499 12.1305 6.32924 12.1149C5.54017 12.0978 4.02233 11.6663 2.89397 11.2975C1.50999 10.8451 0.410032 10.606 0.505814 9.83769C0.555703 9.43752 1.10372 9.02828 2.14987 8.60995Z" fill="#2F2F2F"/>
</svg>
