<svg width="18" height="18" viewBox="0 0 18 18" fill="none" xmlns="http://www.w3.org/2000/svg">
<path d="M3 15.5H16C16.5304 15.5 17.0391 15.2893 17.4142 14.9142C17.7893 14.5391 18 14.0304 18 13.5V11.5H3V15.5Z" fill="#4AA657"/>
<path d="M16 2.5H3V11.5H18V4.5C18 3.96957 17.7893 3.46086 17.4142 3.08579C17.0391 2.71071 16.5304 2.5 16 2.5Z" fill="#C8313E"/>
<path d="M2 2.5C1.46957 2.5 0.960859 2.71071 0.585786 3.08579C0.210714 3.46086 0 3.96957 0 4.5L0 13.5C0 14.0304 0.210714 14.5391 0.585786 14.9142C0.960859 15.2893 1.46957 15.5 2 15.5H3V2.5H2Z" fill="white"/>
<path d="M0.383047 14.594L0.695547 14.0395L1.01605 14.61L0.745047 15.0455C0.830443 15.1149 0.921418 15.1771 1.01705 15.2315L1.41305 14.513L0.703047 13.375L0.144547 14.238C0.236047 14.468 0.370047 14.674 0.535047 14.853L0.383047 14.594ZM2.99055 14.5485L2.24205 13.4375L1.49105 14.523L2.13405 15.5H2.45755L2.99055 14.5485ZM2.26405 14.039L2.58455 14.6095L2.26405 15.125L1.95155 14.594L2.26405 14.039ZM3.00005 9.1665V8.7195L2.84355 8.9375L3.00005 9.1665ZM1.41255 3.513L0.965547 2.796C0.574496 3.03436 0.277097 3.39972 0.123047 3.831L0.765547 4.6875L1.41255 3.513ZM0.383047 3.594L0.695547 3.0395L1.01605 3.61L0.695547 4.125L0.383047 3.594ZM2.30855 4.7655L2.99055 3.548L2.28455 2.5H2.19905L1.49155 3.523L2.30855 4.7655ZM2.58405 3.6095L2.26405 4.125L1.95155 3.594L2.26405 3.0395L2.58405 3.6095Z" fill="#C8313E"/>
<path d="M2.4765 7.5L2.914 6.7735L3 6.8115V6.5L2.297 5.406L1.453 6.578L0.703 5.375L0 6.4615V6.7865L0.4295 7.5L0.734 7.0545L0.5155 6.75L0.6795 6.531L1.156 7.148L0.453 8.304L0 7.6805V8.457L0.029 8.4185L0.5055 9.0355L0 9.8675V10.456L0.453 9.832L1.156 10.988L0.761 11.5L0.6795 11.6055L0.6005 11.5L0.5155 11.3865L0.7345 11.082L0.43 10.6365L0 11.3505V11.638L0.719 12.7345L1.419 11.5L1.4455 11.453L1.4745 11.5L2.2815 12.8045L3 11.531V11.3355L2.9375 11.3635L2.5 10.6365L2.195 11.082L2.414 11.3865L2.329 11.5L2.25 11.6055L2.1685 11.5L1.7735 10.9885L2.4765 9.8325L3 10.553V9.982L2.4215 9.031L2.898 8.414L3 8.55V7.5515L2.453 8.305L1.75 7.1485L2.2265 6.5315L2.3905 6.75L2.1715 7.0545L2.4765 7.5ZM2.1425 8.5155V9.4795L1.445 10.581L0.788 9.475V8.521L1.445 7.4145L2.1425 8.5155Z" fill="#C8313E"/>
<path d="M1.01568 8.4115L1.31468 8.957L1.01568 9.5025L1.23468 9.6225L1.45718 9.217L1.67968 9.6225L1.89868 9.5025L1.59968 8.957L1.89868 8.4115L1.67968 8.2915L1.45718 8.697L1.23468 8.2915L1.01568 8.4115ZM0.0131836 13.094L0.325684 13.625L0.646184 13.1095L0.325684 12.539L0.0131836 13.094ZM0.771184 13.094L1.08368 13.625L1.40368 13.1095L1.08368 12.539L0.771184 13.094ZM1.51318 13.094L1.82568 13.625L2.14618 13.1095L1.82568 12.539L1.51318 13.094ZM2.30918 13.094L2.62168 13.625L2.94168 13.1095L2.62168 12.539L2.30918 13.094ZM0.0131836 5.0625L0.325684 5.594L0.646184 5.078L0.325684 4.508L0.0131836 5.0625ZM0.771184 5.0625L1.08368 5.594L1.40368 5.078L1.08368 4.508L0.771184 5.0625ZM1.51318 5.0625L1.82568 5.594L2.14618 5.078L1.82568 4.508L1.51318 5.0625ZM2.30918 5.0625L2.62168 5.594L2.94168 5.078L2.62168 4.508L2.30918 5.0625Z" fill="#C8313E"/>
</svg>
