<svg width="50" height="50" viewBox="0 0 50 50" fill="none" xmlns="http://www.w3.org/2000/svg">
<circle cx="25" cy="25" r="24.5" fill="white" stroke="#2A2E46"/>
<g clip-path="url(#clip0_2038_873)">
<path d="M20.4957 10.0854C17.1985 11.2292 14.355 13.4003 12.3828 16.2796C10.4107 19.159 9.41387 22.5948 9.53878 26.0826C9.66369 29.5703 10.9038 32.9261 13.0768 35.657C15.2499 38.3879 18.2414 40.3499 21.612 41.2549C24.3446 41.96 27.2076 41.991 29.9548 41.3452C32.4436 40.7862 34.7444 39.5904 36.6322 37.875C38.5969 36.0351 40.023 33.6945 40.7572 31.1049C41.5552 28.2887 41.6972 25.3271 41.1723 22.4475H25.8273V28.8129H34.7141C34.5364 29.8281 34.1558 30.7971 33.595 31.6618C33.0342 32.5265 32.3047 33.2692 31.4502 33.8454C30.365 34.5632 29.1417 35.0462 27.8588 35.2634C26.5722 35.5026 25.2525 35.5026 23.9659 35.2634C22.6618 34.9938 21.4282 34.4555 20.3436 33.683C18.6012 32.4496 17.2928 30.6973 16.6053 28.6763C15.9062 26.6174 15.9062 24.3853 16.6053 22.3263C17.0947 20.8832 17.9037 19.5691 18.972 18.4824C20.1946 17.2158 21.7423 16.3105 23.4455 15.8658C25.1486 15.421 26.9414 15.4539 28.6271 15.961C29.9439 16.3652 31.1481 17.0715 32.1437 18.0235C33.1457 17.0266 34.146 16.0271 35.1446 15.0251C35.6602 14.4863 36.2223 13.9732 36.7302 13.4215C35.2105 12.0073 33.4268 10.9069 31.4811 10.1834C27.938 8.89687 24.0612 8.86229 20.4957 10.0854Z" fill="white"/>
<path d="M20.4957 10.0854C24.0609 8.86143 27.9377 8.8951 31.4811 10.1808C33.4271 10.9093 35.2101 12.0149 36.7276 13.4344C36.212 13.9861 35.668 14.5017 35.142 15.038C34.1417 16.0366 33.1423 17.0317 32.1437 18.0234C31.1481 17.0714 29.944 16.3652 28.6271 15.9609C26.942 15.4521 25.1493 15.4173 23.4457 15.8602C21.742 16.3032 20.1933 17.2068 18.9695 18.472C17.9012 19.5588 17.0921 20.8728 16.6028 22.316L11.2583 18.1781C13.1713 14.3846 16.4835 11.4828 20.4957 10.0854Z" fill="#E33629"/>
<path d="M9.84068 22.2773C10.1279 20.8537 10.6048 19.475 11.2586 18.1781L16.6031 22.3263C15.9039 24.3852 15.9039 26.6173 16.6031 28.6762C14.8225 30.0512 13.041 31.4331 11.2586 32.8219C9.62192 29.5639 9.12275 25.8519 9.84068 22.2773Z" fill="#F8BD00"/>
<path d="M25.8273 22.4449H41.1723C41.6972 25.3245 41.5552 28.2861 40.7572 31.1023C40.0231 33.692 38.597 36.0326 36.6322 37.8724C34.9075 36.5267 33.175 35.1912 31.4502 33.8454C32.3053 33.2686 33.0352 32.5251 33.596 31.6595C34.1569 30.7939 34.5372 29.8239 34.7141 28.8078H25.8273C25.8247 26.6885 25.8273 24.5667 25.8273 22.4449Z" fill="#587DBD"/>
<path d="M11.2559 32.8219C13.0382 31.4469 14.8197 30.065 16.6003 28.6763C17.2892 30.698 18.5994 32.4504 20.3438 33.683C21.4317 34.452 22.668 34.9858 23.9738 35.2505C25.2604 35.4897 26.5801 35.4897 27.8667 35.2505C29.1496 35.0333 30.3729 34.5503 31.458 33.8325C33.1828 35.1783 34.9153 36.5138 36.6401 37.8596C34.7526 39.5759 32.4517 40.7725 29.9627 41.3323C27.2155 41.9781 24.3525 41.9472 21.6199 41.2421C19.4587 40.665 17.4399 39.6477 15.6902 38.254C13.8383 36.7837 12.3257 34.9307 11.2559 32.8219Z" fill="#319F43"/>
</g>
<defs>
<clipPath id="clip0_2038_873">
<rect width="33" height="33" fill="white" transform="translate(9 9)"/>
</clipPath>
</defs>
</svg>
