<svg width="69" height="69" viewBox="0 0 69 69" fill="none" xmlns="http://www.w3.org/2000/svg">
<path d="M50.3542 15.8125C57.4483 19.2165 59.1862 32.3926 57.4483 40.3564C56.1459 34.7084 53.3945 32.6083 53.3945 32.6083C54.5532 42.8174 52.164 47.8127 44.7063 54.3289C45.6479 51.1434 44.7063 49.3882 44.7063 49.3882" stroke="white" stroke-width="0.5" stroke-linecap="round" stroke-linejoin="round"/>
<path d="M47.5309 29.279C49.8468 41.7306 46.4442 51.1434 35.006 59.5412C44.7063 42.5514 38.8441 38.6831 41.6113 28.4107M55.1138 20.6813C57.4425 13.2178 55.7506 8.79175 49.1223 7.99537C45.1735 7.521 41.6113 8.9355 37.1048 12.6284C34.4957 14.7674 27.2593 14.3649 27.2593 14.3649C22.4092 10.4549 13.5772 9.73187 15.8211 20.0862M28.5143 27.6748C27.1026 28.2541 20.2616 25.8635 16.1705 29.4127M39.1575 24.38C36.225 27.2766 35.3194 31.9815 35.3194 31.9815" stroke="white" stroke-width="0.5" stroke-linecap="round" stroke-linejoin="round"/>
<path d="M41.1124 24.38C36.1387 22.5112 28.8031 27.554 28.8031 27.554M23.1695 35.8426C20.3463 34.2024 17.7157 32.5852 17.7157 32.5852C14.4813 33.8891 11.9958 34.2269 11.9958 34.2269" stroke="white" stroke-width="0.5" stroke-linecap="round" stroke-linejoin="round"/>
<path d="M19.4292 16.3932C17.0645 20.7359 11.8521 21.413 11.658 23.8007C11.464 26.1884 14.1679 28.6522 14.2168 29.6657C14.2657 30.6791 10.7409 34.0572 10.935 37.0976C11.129 40.1379 14.5546 45.7858 14.5546 45.7858C14.5546 45.7858 16.4852 44.8327 16.9193 43.746C17.5345 47.5108 22.0224 52.9402 22.0224 52.9402C20.9012 56.0165 20.5749 61.3381 25.7513 61.0851C30.9277 60.8321 39.1991 50.0149 39.1991 50.0149" stroke="white" stroke-width="0.5" stroke-linecap="round" stroke-linejoin="round"/>
<path d="M41.3282 18.2994C30.7108 16.0799 28.0313 25.4667 22.7471 27.4189M52.2848 14.2931C49.2919 13.5211 44.5626 13.57 47.9881 19.6018" stroke="white" stroke-width="0.5" stroke-linecap="round" stroke-linejoin="round"/>
<path d="M32.6025 14.1507C25.4107 15.8686 9.95755 26.5046 25.576 25.6076M21.6329 34.9428C18.7896 37.8465 14.7502 37.5806 12.8599 34.0702M13.0453 43.0416C13.3357 40.5979 16.5212 38.5221 18.9347 41.2246C21.9262 41.5624 29.5521 39.2941 29.5521 39.2941C29.5521 39.2941 31.9657 48.0772 33.6059 50.7322M35.006 49.6225C31.2412 53.1933 32.7736 56.3572 31.6221 58.0319M36.2609 34.6854C36.9854 39.0526 35.7837 43.976 35.7837 43.976" stroke="white" stroke-width="0.5" stroke-linecap="round" stroke-linejoin="round"/>
<path d="M40.1005 47.6258C40.3162 42.3833 38.6242 32.4645 28.8018 27.554M32.6025 48.6392C31.2168 53.6992 29.0936 56.3069 27.6705 52.0835C27.6705 52.0835 26.8497 54.0141 25.4495 53.9178C19.9152 53.5354 27.3327 44.9406 30.6073 42.8821" stroke="white" stroke-width="0.5" stroke-linecap="round" stroke-linejoin="round"/>
<path d="M21.3397 56.5484C24.1472 55.6068 28.4899 56.7899 28.4899 56.7899L29.8124 54.0744M16.9194 43.746L24.8458 43.4686L26.8066 46.3206" stroke="white" stroke-width="0.5" stroke-linecap="round" stroke-linejoin="round"/>
<path d="M24.5352 49.335C22.3359 47.7883 20.355 43.6253 20.355 43.6253" stroke="white" stroke-width="0.5" stroke-linecap="round" stroke-linejoin="round"/>
</svg>
