<svg width="169" height="23" viewBox="0 0 169 23" fill="none" xmlns="http://www.w3.org/2000/svg">
<path d="M8.696 12.76H8.568H8.696L10.392 5.752L11.768 0.599998H15.768L17.208 23H13.016L12.408 10.776H12.248L9.944 19.8H7.32L5.016 10.776H4.856L4.248 23H0.056L1.496 0.599998H5.496L6.872 5.752L8.568 12.76H8.696ZM27.338 15.608H23.914C23.466 16.1627 23.242 16.856 23.242 17.688C23.242 18.52 23.4767 19.1707 23.946 19.64H27.338V15.608ZM20.458 6.648H28.394C29.674 7.416 30.5167 8.30133 30.922 9.304C31.3273 10.2853 31.53 11.6293 31.53 13.336V18.136C31.53 19.9067 31.5727 21.528 31.658 23H28.01L27.434 21.848C26.602 22.616 25.4287 23 23.914 23H21.898C20.0847 21.8053 19.178 20.088 19.178 17.848C19.178 15.5867 20.106 13.8053 21.962 12.504H24.97C25.802 12.504 26.5807 12.76 27.306 13.272V11.672C27.306 10.84 26.9433 10.2853 26.218 10.008H20.458V6.648ZM46.6663 23H43.4343L42.8583 21.848C42.3889 22.2747 41.9409 22.5733 41.5143 22.744C41.1089 22.9147 40.4903 23 39.6583 23H36.8743C35.9356 22.104 35.1889 20.9307 34.6343 19.48C34.1009 18.0293 33.8343 16.408 33.8343 14.616C33.8343 12.8027 34.1009 11.2667 34.6343 10.008C35.1889 8.74933 35.9676 7.62933 36.9703 6.648H39.7223C40.8529 6.648 41.7489 6.94667 42.4103 7.544V0.599998H46.6663V23ZM42.4103 10.008H39.3383C38.5489 11.352 38.1543 13.0053 38.1543 14.968C38.1543 16.9093 38.5383 18.4667 39.3063 19.64H42.4103V10.008ZM56.7993 10.008H54.3993C54.0793 10.392 53.8126 10.9253 53.5993 11.608C53.4073 12.2907 53.3113 12.952 53.3113 13.592H57.8873C57.9299 12.952 57.8446 12.2907 57.6313 11.608C57.4179 10.904 57.1406 10.3707 56.7993 10.008ZM61.1513 19.64V23H53.0233C51.5299 21.9973 50.4739 20.76 49.8553 19.288C49.2579 17.7947 48.9593 16.2907 48.9593 14.776C48.9593 11.2773 50.2819 8.568 52.9273 6.648H58.1113C59.5406 7.69333 60.5113 8.80267 61.0233 9.976C61.5353 11.1493 61.7913 12.3333 61.7913 13.528C61.7913 14.7227 61.6953 15.7467 61.5033 16.6H53.5353C53.5993 17.0907 53.7806 17.656 54.0793 18.296C54.3993 18.9147 54.7406 19.3627 55.1033 19.64H61.1513ZM69.0635 23V6.648H73.2875V23H69.0635ZM69.0635 0.599998H73.2875V4.92H69.0635V0.599998ZM83.1363 6.648H86.5283C87.4669 7.84267 88.1069 9.03733 88.4483 10.232C88.7896 11.4267 88.9603 12.92 88.9603 14.712V23H84.7043V14.392C84.7043 12.3653 84.4269 10.904 83.8723 10.008H80.2883V23H76.0323V6.648H79.3602L79.9363 7.8C80.4056 7.37333 80.8429 7.07467 81.2483 6.904C81.6749 6.73333 82.3043 6.648 83.1363 6.648ZM96.8798 0.599998H105.392C106.736 1.048 107.877 1.88 108.816 3.096C109.776 4.29067 110.256 5.76267 110.256 7.512C110.256 10.3707 109.125 12.472 106.864 13.816L110.096 23H105.616L102.896 14.84H101.2V23H96.8798V0.599998ZM101.2 4.44V11.256H103.952C104.314 11.1707 104.709 10.808 105.136 10.168C105.584 9.50667 105.808 8.73867 105.808 7.864C105.808 6.98933 105.616 6.22133 105.232 5.56C104.869 4.89867 104.506 4.52533 104.144 4.44H101.2ZM117.759 23H114.399C113.46 21.8053 112.82 20.6107 112.479 19.416C112.137 18.2213 111.967 16.728 111.967 14.936V6.648H116.223V15.256C116.223 17.1973 116.607 18.6587 117.375 19.64H120.351V6.648H124.607V23H121.247L120.671 21.848C119.86 22.616 118.889 23 117.759 23ZM128.945 6.648H136.017V10.008H131.025L134.065 14.52C135.43 16.4613 136.187 17.7947 136.337 18.52C136.422 18.8613 136.465 19.2133 136.465 19.576C136.465 21.0907 135.899 22.232 134.769 23H126.609V19.64H132.465L129.041 14.616C128.891 14.3813 128.657 14.0507 128.337 13.624C128.038 13.1973 127.803 12.856 127.633 12.6C127.462 12.3227 127.345 12.12 127.281 11.992C127.217 11.864 127.131 11.704 127.025 11.512C126.918 11.2987 126.843 11.1173 126.801 10.968C126.715 10.5627 126.673 10.232 126.673 9.976C126.673 8.41867 127.43 7.30933 128.945 6.648ZM140.132 6.648H147.204V10.008H142.212L145.252 14.52C146.618 16.4613 147.375 17.7947 147.524 18.52C147.61 18.8613 147.652 19.2133 147.652 19.576C147.652 21.0907 147.087 22.232 145.956 23H137.796V19.64H143.652L140.228 14.616C140.079 14.3813 139.844 14.0507 139.524 13.624C139.226 13.1973 138.991 12.856 138.82 12.6C138.65 12.3227 138.532 12.12 138.468 11.992C138.404 11.864 138.319 11.704 138.212 11.512C138.106 11.2987 138.031 11.1173 137.988 10.968C137.903 10.5627 137.86 10.232 137.86 9.976C137.86 8.41867 138.618 7.30933 140.132 6.648ZM149.72 23V6.648H153.944V23H149.72ZM149.72 0.599998H153.944V4.92H149.72V0.599998ZM164.401 15.608H160.977C160.529 16.1627 160.305 16.856 160.305 17.688C160.305 18.52 160.539 19.1707 161.009 19.64H164.401V15.608ZM157.521 6.648H165.457C166.737 7.416 167.579 8.30133 167.985 9.304C168.39 10.2853 168.593 11.6293 168.593 13.336V18.136C168.593 19.9067 168.635 21.528 168.721 23H165.073L164.497 21.848C163.665 22.616 162.491 23 160.977 23H158.961C157.147 21.8053 156.241 20.088 156.241 17.848C156.241 15.5867 157.169 13.8053 159.025 12.504H162.033C162.865 12.504 163.643 12.76 164.369 13.272V11.672C164.369 10.84 164.006 10.2853 163.281 10.008H157.521V6.648Z" fill="white"/>
</svg>
