<svg width="18" height="18" viewBox="0 0 18 18" fill="none" xmlns="http://www.w3.org/2000/svg">
<path d="M17.0001 17.0004L12.9501 12.9504M12.9501 12.9504C13.6002 12.3003 14.1158 11.5286 14.4676 10.6793C14.8194 9.82995 15.0005 8.91966 15.0005 8.00036C15.0005 7.08106 14.8194 6.17076 14.4676 5.32144C14.1158 4.47211 13.6002 3.7004 12.9501 3.05036C12.3001 2.40031 11.5284 1.88467 10.679 1.53287C9.82971 1.18107 8.91941 1 8.00011 1C7.08081 1 6.17051 1.18107 5.32119 1.53287C4.47187 1.88467 3.70016 2.40031 3.05011 3.05036C1.73729 4.36318 0.999756 6.14375 0.999756 8.00036C0.999756 9.85697 1.73729 11.6375 3.05011 12.9504C4.36293 14.2632 6.1435 15.0007 8.00011 15.0007C9.85672 15.0007 11.6373 14.2632 12.9501 12.9504Z" stroke="#181818" stroke-width="2" stroke-linecap="round" stroke-linejoin="round"/>
</svg>
