<svg width="27" height="27" viewBox="0 0 27 27" fill="none" xmlns="http://www.w3.org/2000/svg">
<circle cx="13.5" cy="13.5" r="13.5" fill="#AC2525"/>
<path d="M11.75 16.8168V16.6818C11.7595 15.8011 11.8471 15.1004 12.0128 14.5795C12.1832 14.0587 12.4247 13.6373 12.7372 13.3153C13.0497 12.9934 13.4261 12.6998 13.8665 12.4347C14.1506 12.2547 14.4063 12.0535 14.6335 11.831C14.8608 11.6084 15.0407 11.3527 15.1733 11.0639C15.3059 10.7751 15.3722 10.4555 15.3722 10.1051C15.3722 9.68371 15.2727 9.31913 15.0739 9.01136C14.875 8.7036 14.6098 8.46686 14.2784 8.30114C13.9517 8.13068 13.5871 8.04545 13.1847 8.04545C12.8201 8.04545 12.4721 8.12121 12.1406 8.27273C11.8092 8.42424 11.5346 8.66098 11.3168 8.98295C11.099 9.30019 10.9735 9.70975 10.9403 10.2116H8.78125C8.81439 9.35938 9.02983 8.63968 9.42756 8.05256C9.82528 7.4607 10.3509 7.01326 11.0043 6.71023C11.6624 6.4072 12.3892 6.25568 13.1847 6.25568C14.0559 6.25568 14.8182 6.41903 15.4716 6.74574C16.125 7.06771 16.6316 7.51989 16.9915 8.10227C17.3561 8.67992 17.5384 9.35464 17.5384 10.1264C17.5384 10.6567 17.4555 11.1349 17.2898 11.5611C17.1241 11.9825 16.8873 12.3589 16.5795 12.6903C16.2765 13.0218 15.9119 13.3153 15.4858 13.571C15.0833 13.822 14.7566 14.0824 14.5057 14.3523C14.2595 14.6222 14.0795 14.9418 13.9659 15.3111C13.8523 15.6804 13.7907 16.1373 13.7812 16.6818V16.8168H11.75ZM12.8224 21.1349C12.4342 21.1349 12.1004 20.9976 11.821 20.723C11.5417 20.4437 11.402 20.1075 11.402 19.7145C11.402 19.3262 11.5417 18.9948 11.821 18.7202C12.1004 18.4408 12.4342 18.3011 12.8224 18.3011C13.206 18.3011 13.5374 18.4408 13.8168 18.7202C14.1009 18.9948 14.2429 19.3262 14.2429 19.7145C14.2429 19.9749 14.1766 20.214 14.044 20.4318C13.9162 20.6449 13.7457 20.8153 13.5327 20.9432C13.3196 21.071 13.0829 21.1349 12.8224 21.1349Z" fill="white"/>
</svg>
