<svg width="18" height="17" viewBox="0 0 18 17" fill="none" xmlns="http://www.w3.org/2000/svg">
<path d="M8.99996 14.275L4.84996 16.775C4.66663 16.8916 4.47496 16.9416 4.27496 16.9249C4.07496 16.9083 3.89996 16.8416 3.74996 16.725C3.59996 16.6083 3.4833 16.4626 3.39996 16.288C3.31663 16.1133 3.29996 15.9173 3.34996 15.7L4.44996 10.975L0.774963 7.79995C0.608296 7.64995 0.504296 7.47895 0.462963 7.28695C0.421629 7.09495 0.433963 6.90762 0.499963 6.72495C0.565963 6.54228 0.665963 6.39228 0.799963 6.27495C0.933963 6.15762 1.1173 6.08262 1.34996 6.04995L6.19996 5.62495L8.07496 1.17495C8.1583 0.974951 8.28763 0.824951 8.46296 0.724951C8.6383 0.624951 8.8173 0.574951 8.99996 0.574951C9.18263 0.574951 9.36163 0.624951 9.53696 0.724951C9.7123 0.824951 9.84163 0.974951 9.92496 1.17495L11.8 5.62495L16.65 6.04995C16.8833 6.08328 17.0666 6.15828 17.2 6.27495C17.3333 6.39162 17.4333 6.54162 17.5 6.72495C17.5666 6.90829 17.5793 7.09595 17.538 7.28795C17.4966 7.47995 17.3923 7.65062 17.225 7.79995L13.55 10.975L14.65 15.7C14.7 15.9166 14.6833 16.1126 14.6 16.288C14.5166 16.4633 14.4 16.609 14.25 16.725C14.1 16.841 13.925 16.9076 13.725 16.9249C13.525 16.9423 13.3333 16.8923 13.15 16.775L8.99996 14.275Z" fill="#EFC81C"/>
</svg>
