<svg id="Layer_1" data-name="Layer 1" xmlns="http://www.w3.org/2000/svg" viewBox="0 0 103.48 96.07">
  <defs>
    <style>
      .cls-1{fill:none;}  /* Изменено: убран синий фон */
      .cls-2{fill:#e1251b;}
      .cls-3{fill:#fff;}
    </style>
  </defs>
  <!-- Убран rect с синим фоном -->
  <path class="cls-2" d="M144.9,434.31C134.77,416.93,120,410,109,406.74c-10.45-2.47-16-2.37-16.75-2.37,0,.48-6.25,27.72-6.74,29.86a2.56,2.56,0,0,0,.31.06c8.91,0,20.83,0,20.83,0l6.85-5.36H93.77c.24-1,1.11-5,1.42-6.17.24-1,.53-1.17,1.33-1.17,5.19.05,1.68,0,6.87.05a2.69,2.69,0,0,0,1.85-.84l5.67-4.6H96.75c.22-.93,1.27-5.36,1.41-6.2.11-.68.34-.91,1-.91,7-.16,21.31,3,29.41,13.8L114,434.2c.49,0,.74.05,1,.05,2.24,0,4.33.09,6.73.05,2.62,0,3.73-.37,6.07-2.14,1.51-1.25,4.69-3.63,4.69-3.63s1.65,2.89,2.36,4.34a2.07,2.07,0,0,0,2.15,1.44Z" transform="translate(-71.74 -372.59)"/>
  <path class="cls-3" d="M143.72,417.85c6.05-4.54,11.62-8.91,17.76-13.52a3.64,3.64,0,0,0-.48-.07c-3.57,0-4.7,0-8.27,0A6.75,6.75,0,0,0,148,406c-3.82,2.88-2.66,2-9.75,7.23-3.55-2.2-24.32-12.05-45.67-10.69,6.27-.1,18.59,1.28,32.4,7.75a77.72,77.72,0,0,1,15.15,9.91,77.43,77.43,0,0,1,12.15,14.06h3l.41,0h3.2C154.38,427.77,149.75,422.25,143.72,417.85Z" transform="translate(-71.74 -372.59)"/>
</svg>