<svg width="18" height="18" viewBox="0 0 18 18" fill="none" xmlns="http://www.w3.org/2000/svg">
<path d="M18 13.5C18 14.0304 17.7893 14.5391 17.4142 14.9142C17.0391 15.2893 16.5304 15.5 16 15.5H2C1.46957 15.5 0.960859 15.2893 0.585786 14.9142C0.210714 14.5391 0 14.0304 0 13.5V4.5C0 3.96957 0.210714 3.46086 0.585786 3.08579C0.960859 2.71071 1.46957 2.5 2 2.5H16C16.5304 2.5 17.0391 2.71071 17.4142 3.08579C17.7893 3.46086 18 3.96957 18 4.5V13.5Z" fill="#DE2910"/>
<path d="M5.56806 4.48854L5.93606 4.66654L6.23056 4.38354L6.17506 4.78854L6.53506 4.98154L6.13306 5.05354L6.06106 5.45554L5.86806 5.09554L5.46306 5.15104L5.74606 4.85654L5.56806 4.48854ZM7.90056 5.95904L7.72256 6.32654L8.00556 6.62154L7.60106 6.56554L7.40806 6.92604L7.33606 6.52354L6.93356 6.45154L7.29406 6.25854L7.23806 5.85404L7.53306 6.13704L7.90056 5.95904ZM7.42206 7.84854L7.55606 8.23454L7.96456 8.24304L7.63906 8.48954L7.75756 8.88104L7.42206 8.64754L7.08656 8.88104L7.20456 8.48954L6.87906 8.24304L7.28756 8.23454L7.42206 7.84854ZM5.56806 9.48854L5.93606 9.66654L6.23056 9.38354L6.17506 9.78854L6.53506 9.98154L6.13306 10.0535L6.06106 10.4555L5.86806 10.0955L5.46306 10.151L5.74606 9.85654L5.56806 9.48854ZM3.50006 5.47554L3.96456 6.81104L5.37756 6.84004L4.25106 7.69404L4.66056 9.04704L3.50006 8.23954L2.33956 9.04704L2.74906 7.69404L1.62256 6.84004L3.03556 6.81104L3.50006 5.47554Z" fill="#FFDE02"/>
</svg>
