<svg width="18" height="18" viewBox="0 0 18 18" fill="none" xmlns="http://www.w3.org/2000/svg">
<path d="M18 13.5C18 14.0304 17.7893 14.5391 17.4142 14.9142C17.0391 15.2893 16.5304 15.5 16 15.5H2C1.46957 15.5 0.960859 15.2893 0.585786 14.9142C0.210714 14.5391 0 14.0304 0 13.5V4.5C0 3.96957 0.210714 3.46086 0.585786 3.08579C0.960859 2.71071 1.46957 2.5 2 2.5H16C16.5304 2.5 17.0391 2.71071 17.4142 3.08579C17.7893 3.46086 18 3.96957 18 4.5V13.5Z" fill="#00AFCA"/>
<path d="M9.51746 9.68897C10.3086 9.68897 10.95 9.04762 10.95 8.25647C10.95 7.46533 10.3086 6.82397 9.51746 6.82397C8.72631 6.82397 8.08496 7.46533 8.08496 8.25647C8.08496 9.04762 8.72631 9.68897 9.51746 9.68897Z" fill="#FFCC4D"/>
<path d="M9.51845 6.71598C9.60345 6.71498 9.63445 6.66148 9.63445 6.59798C9.63445 6.51298 9.51845 5.84998 9.51845 5.84998C9.51845 5.84998 9.40045 6.51298 9.40045 6.59798C9.40045 6.66148 9.43245 6.71598 9.51845 6.71598ZM9.51845 9.80498C9.43245 9.80548 9.40045 9.85898 9.40045 9.92248C9.40045 10.008 9.51845 10.662 9.51845 10.662C9.51845 10.662 9.63445 10.0075 9.63445 9.92248C9.63495 9.85948 9.60345 9.80498 9.51845 9.80498ZM9.11795 9.74448C9.03545 9.72348 8.99195 9.76698 8.97545 9.82848C8.95345 9.91048 8.89395 10.5815 8.89395 10.5815C8.89395 10.5815 9.17945 9.97098 9.20145 9.88898C9.21845 9.82748 9.20095 9.76648 9.11795 9.74448ZM9.91795 6.76048C10.001 6.78248 10.046 6.73848 10.0625 6.67748C10.0845 6.59498 10.1395 5.93248 10.1395 5.93248C10.1395 5.93248 9.85845 6.53398 9.83595 6.61698C9.81945 6.67798 9.83545 6.73848 9.91795 6.76048ZM8.74645 9.58948C8.67195 9.54798 8.61845 9.57848 8.58695 9.63398C8.54445 9.70748 8.31345 10.34 8.31345 10.34C8.31345 10.34 8.74695 9.82448 8.78945 9.75098C8.82145 9.69548 8.82095 9.63248 8.74645 9.58948ZM10.291 6.91398C10.3655 6.95698 10.4205 6.92598 10.452 6.87098C10.495 6.79698 10.7194 6.17198 10.7194 6.17198C10.7194 6.17198 10.2915 6.68048 10.2485 6.75398C10.2175 6.80898 10.2175 6.87148 10.291 6.91398ZM8.42745 9.34498C8.36645 9.28548 8.30695 9.30098 8.26195 9.34598C8.20195 9.40648 7.81495 9.95748 7.81495 9.95748C7.81495 9.95748 8.36745 9.57148 8.42745 9.51198C8.47245 9.46698 8.48845 9.40498 8.42745 9.34498ZM10.612 7.15998C10.673 7.22048 10.7335 7.20498 10.7785 7.15998C10.839 7.09998 11.218 6.55348 11.218 6.55348C11.218 6.55348 10.6735 6.93448 10.6135 6.99498C10.5685 7.03998 10.552 7.09998 10.612 7.15998ZM8.18345 9.02548C8.13995 8.95248 8.07845 8.95248 8.02295 8.98398C7.94895 9.02648 7.43295 9.45848 7.43295 9.45848C7.43295 9.45848 8.06645 9.22948 8.13995 9.18698C8.19545 9.15498 8.22645 9.09998 8.18345 9.02548ZM10.8584 7.48098C10.9019 7.55548 10.965 7.55598 11.0195 7.52448C11.0935 7.48148 11.601 7.05248 11.601 7.05248C11.601 7.05248 10.9765 7.27898 10.9025 7.32148C10.8475 7.35348 10.8164 7.40698 10.8584 7.48098ZM8.02995 8.65398C8.00695 8.57198 7.94695 8.55598 7.88545 8.57198C7.80345 8.59398 7.19295 8.87798 7.19295 8.87798C7.19295 8.87798 7.86395 8.82048 7.94595 8.79848C8.00745 8.78148 8.05195 8.73698 8.02995 8.65398ZM11.0129 7.85398C11.0359 7.93698 11.096 7.95398 11.1575 7.93748C11.24 7.91548 11.8415 7.63248 11.8415 7.63248C11.8415 7.63248 11.1795 7.68948 11.0965 7.71148C11.0355 7.72748 10.9909 7.77198 11.0129 7.85398ZM7.97745 8.25548C7.97645 8.17048 7.92295 8.13948 7.85945 8.13948C7.77445 8.13948 7.11145 8.25548 7.11145 8.25548C7.11145 8.25548 7.77445 8.37348 7.85945 8.37348C7.92295 8.37348 7.97745 8.34148 7.97745 8.25548ZM11.0665 8.25548C11.067 8.34148 11.1205 8.37348 11.184 8.37348C11.2695 8.37348 11.9235 8.25548 11.9235 8.25548C11.9235 8.25548 11.269 8.13948 11.184 8.13948C11.1205 8.13898 11.0665 8.17048 11.0665 8.25548ZM8.02995 7.85698C8.05095 7.77448 8.00745 7.73098 7.94595 7.71448C7.86395 7.69248 7.19295 7.63298 7.19295 7.63298C7.19295 7.63298 7.80345 7.91848 7.88545 7.94048C7.94695 7.95698 8.00795 7.93998 8.02995 7.85698ZM11.0135 8.65648C10.9915 8.73948 11.0355 8.78448 11.0965 8.80098C11.179 8.82298 11.8415 8.87798 11.8415 8.87798C11.8415 8.87798 11.2399 8.59648 11.1569 8.57448C11.0959 8.55848 11.0355 8.57398 11.0135 8.65648ZM8.18395 7.48548C8.22545 7.41148 8.19495 7.35748 8.13945 7.32598C8.06595 7.28348 7.43345 7.05248 7.43345 7.05248C7.43345 7.05248 7.94895 7.48598 8.02245 7.52848C8.07795 7.56048 8.14095 7.55948 8.18395 7.48548ZM10.8595 9.02998C10.8165 9.10448 10.8475 9.15948 10.9025 9.19098C10.976 9.23398 11.6014 9.45848 11.6014 9.45848C11.6014 9.45848 11.093 9.03098 11.0195 8.98798C10.9645 8.95648 10.902 8.95648 10.8595 9.02998ZM8.42845 7.16648C8.48795 7.10548 8.47245 7.04598 8.42745 7.00098C8.36695 6.94098 7.81595 6.55398 7.81595 6.55398C7.81595 6.55398 8.20195 7.10648 8.26145 7.16648C8.30645 7.21148 8.36795 7.22748 8.42845 7.16648ZM10.6135 9.35098C10.553 9.41198 10.5685 9.47298 10.6135 9.51748C10.6735 9.57798 11.22 9.95698 11.22 9.95698C11.22 9.95698 10.839 9.41248 10.7785 9.35198C10.7335 9.30698 10.6735 9.29048 10.6135 9.35098ZM8.74845 6.92198C8.82095 6.87848 8.82145 6.81698 8.78995 6.76148C8.74745 6.68798 8.31545 6.17148 8.31545 6.17148C8.31545 6.17148 8.54445 6.80498 8.58695 6.87848C8.61845 6.93398 8.67395 6.96498 8.74845 6.92198ZM10.293 9.59748C10.219 9.64048 10.218 9.70298 10.2495 9.75798C10.2925 9.83198 10.7215 10.3395 10.7215 10.3395C10.7215 10.3395 10.495 9.71448 10.4525 9.64048C10.4205 9.58598 10.3665 9.55448 10.293 9.59748ZM9.11945 6.76848C9.20145 6.74548 9.21745 6.68548 9.20145 6.62398C9.17945 6.54198 8.89545 5.93148 8.89545 5.93148C8.89545 5.93148 8.95295 6.60248 8.97495 6.68448C8.99145 6.74598 9.03645 6.79048 9.11945 6.76848ZM9.91945 9.75198C9.83645 9.77498 9.81945 9.83498 9.83595 9.89648C9.85795 9.97898 10.141 10.5805 10.141 10.5805C10.141 10.5805 10.084 9.91798 10.062 9.83598C10.046 9.77448 10.0015 9.72998 9.91945 9.75198Z" fill="#FFCC4D"/>
<path d="M10.9229 11.8225L10.9044 11.8305L10.8839 11.8335L10.8684 11.8365L10.8399 11.8305L10.8274 11.8255L10.8159 11.82L10.8024 11.8115L10.7799 11.7955L10.7594 11.779L10.7479 11.771L10.7334 11.765L10.7234 11.7625H10.7089L10.6524 11.88L10.6409 11.8965L10.6299 11.91L10.6184 11.9185L10.6084 11.927L10.5939 11.9325H10.5804L10.5679 11.927L10.5504 11.9185L10.5454 11.91L10.5394 11.9015L10.5334 11.8905L10.5274 11.8775L10.5194 11.836L10.5029 11.8495L10.4874 11.869L10.4564 11.916L10.4379 11.9405L10.4184 11.9595L10.4079 11.971L10.3944 11.9795L10.3809 11.9855L10.3644 11.9905H10.3564L10.3419 11.9935L10.3284 11.9905L10.3179 11.9855L10.2859 11.947L10.2499 11.9085L10.2254 11.947L10.1969 11.9795L10.1834 11.993L10.1709 12.0065L10.1574 12.0175L10.1319 12.0315L10.1184 12.0345H10.1049L10.0934 12.0315L10.0824 12.0255L10.0744 12.017L10.0639 12.004L10.0414 11.9435L10.0384 11.9295L10.0334 11.919L10.0274 11.9135H10.0214L9.94741 12.0345L9.93691 12.045L9.91741 12.0535L9.87441 12.064H9.84891L9.82941 12.0585L9.82341 12.0555L9.81541 12.047L9.81341 12.042V12.031L9.82341 11.91L9.81541 11.913L9.79391 11.9235C9.77415 11.944 9.75498 11.965 9.73641 11.9865L9.71191 12.017L9.68141 12.0425L9.65291 12.064L9.63691 12.073L9.60391 12.078L9.59041 12.075L9.58441 12.073L9.57891 12.067L9.57591 12.0585V12.05L9.57891 12.015L9.58741 11.9595L9.58191 11.927L9.57041 11.908L9.55391 11.9325L9.52691 11.968L9.45791 12.04L9.41941 12.0675L9.38941 12.078L9.38341 12.075H9.37491L9.36891 12.07L9.36691 12.067L9.36091 12.0585L9.35891 12.05V12.0395L9.35591 12.0255L9.35891 11.9215C9.30891 11.9555 9.25841 11.9883 9.20741 12.02L9.18841 12.0285L9.16691 12.0395C9.14658 12.0445 9.12641 12.0498 9.10641 12.0555H9.08641L9.06791 12.053L9.05091 12.047L9.05941 12.025L9.07591 11.9865L9.08641 11.9705L9.09841 11.954L9.10891 11.9375L9.13691 11.91L9.16741 11.8885L9.20241 11.866L9.23841 11.8495L9.27991 11.836L9.32091 11.8255L9.41441 11.809L9.46091 11.803C9.59891 11.795 9.73741 11.794 9.87541 11.795L10.0269 11.7865L10.0739 11.781L10.1609 11.7645L10.2029 11.753L10.2419 11.737L10.2779 11.7205C10.2969 11.7055 10.3164 11.6908 10.3364 11.6765L10.3629 11.6455L10.3344 11.591L10.3569 11.588L10.3784 11.583L10.4009 11.572L10.4194 11.558L10.4274 11.553L10.4364 11.5445L10.4424 11.5335L10.4484 11.5255L10.4504 11.5145V11.4955L10.4444 11.4845L10.4914 11.476L10.5414 11.4705L10.5939 11.4675H10.6484C10.7251 11.4705 10.8012 11.475 10.8769 11.481C10.9919 11.4943 11.1072 11.5063 11.2229 11.517L11.3264 11.5225V11.5605L11.3244 11.5775L11.3184 11.5935L11.3134 11.61L11.3074 11.6235L11.2994 11.6345C11.2897 11.6455 11.2796 11.6563 11.2689 11.667L11.2444 11.683L11.2179 11.694L11.1914 11.7L11.1609 11.7055L11.1024 11.7L11.0719 11.6915L11.0454 11.6775L11.0169 11.664L10.9954 11.6445L10.9739 11.623V11.67L10.9604 11.761L10.9499 11.7895L10.9439 11.801L10.9359 11.809L10.9299 11.8175L10.9229 11.8225ZM8.71391 11.564L8.77641 11.5915L8.81491 11.5615L8.83941 11.5485L8.86141 11.5345L8.94391 11.5015L9.01491 11.4685L9.05091 11.455L9.11191 11.4225L9.13641 11.4055C9.19841 11.3648 9.26075 11.3248 9.32341 11.2855L9.37791 11.247L9.41941 11.214C9.46008 11.177 9.50041 11.1395 9.54041 11.1015L9.55691 11.0905L9.57591 11.0795L9.64491 11.0465L9.69141 11.0305C9.78475 11.0052 9.87891 10.985 9.97391 10.97L10.2649 10.9345L10.3939 10.9125C10.4259 10.9035 10.4581 10.8953 10.4904 10.888L10.5234 10.8465L10.5764 10.789L10.6124 10.7535L10.6524 10.72L10.6994 10.6845L10.7539 10.6485L10.8369 10.5995C10.8962 10.5695 10.9554 10.5392 11.0144 10.5085C11.1191 10.4592 11.2229 10.4078 11.3259 10.3545L11.3749 10.3215L11.3884 10.28L11.4079 10.2395L11.4324 10.198L11.4959 10.113C11.5249 10.0823 11.5532 10.051 11.5809 10.019C11.6149 9.98601 11.6497 9.95401 11.6854 9.92301L11.7384 9.87951L11.7649 9.86001L11.7934 9.84101C11.8134 9.82934 11.8336 9.81834 11.8539 9.80801L11.8844 9.79401L11.9139 9.78351L11.9784 9.76651L12.0104 9.76451L12.0409 9.76151L12.0729 9.76451L12.1034 9.76951L12.1014 9.80251L12.0934 9.83501L12.0689 9.90401L12.0484 9.93951L12.0239 9.97551L11.9939 10.0135L11.9579 10.052L11.9864 10.049L12.0109 10.0435L12.0304 10.0375L12.0489 10.0295L12.0849 10.0185L12.1364 10.013L12.1394 10.0325V10.0515L12.1364 10.0705L12.1314 10.087L12.1234 10.1035L12.1119 10.12L12.1014 10.133L12.0879 10.147C12.0501 10.1834 12.0116 10.2191 11.9724 10.254L12.0049 10.257C12.0289 10.2647 12.0531 10.2718 12.0774 10.2785L12.1039 10.2845L12.0719 10.3095L11.9949 10.359L11.9069 10.4085L11.8629 10.436L11.8189 10.4665L11.7779 10.4995L11.7964 10.502L11.8219 10.513L11.8329 10.516L11.8434 10.5215L11.8524 10.524L11.8604 10.5215L11.8059 10.552L11.7044 10.6015L11.6624 10.6265L11.6544 10.635L11.6494 10.6435L11.6434 10.6515L11.6454 10.6625L11.6514 10.671L11.6619 10.679L11.6719 10.688L11.6679 10.6985L11.6619 10.7075L11.6514 10.7155L11.6414 10.724L11.6149 10.737L11.5829 10.751L11.5204 10.773L11.4814 10.7925L11.5359 10.847L11.5164 10.866L11.4979 10.88L11.4814 10.8885L11.4619 10.8965L11.4239 10.902H11.3699L11.3759 10.927L11.3839 10.9515L11.3954 11.007C11.3612 11.0334 11.3264 11.0589 11.2909 11.0835L11.2274 11.1245L11.1569 11.1655L11.1149 11.185L11.0739 11.204C11.0276 11.2219 10.9807 11.2384 10.9334 11.2535L10.8269 11.276L10.7684 11.2845C10.8317 11.2865 10.8952 11.2873 10.9589 11.287L11.1149 11.2705L11.1834 11.257L11.2439 11.2405C11.2839 11.2268 11.3232 11.2122 11.3619 11.1965L11.4379 11.1615L11.5129 11.12L11.5834 11.0755L11.6584 11.032L11.6134 11.01L11.5704 10.9965L11.5499 10.987C11.5346 10.9793 11.5189 10.9722 11.5029 10.9655L11.4774 10.9515L11.4989 10.9355L11.5254 10.9245L11.5539 10.914C11.5872 10.906 11.6204 10.8985 11.6534 10.8915C11.6964 10.8868 11.7394 10.8815 11.7824 10.8755L11.8369 10.87L11.8789 10.8595L11.8899 10.8535L11.8979 10.845L11.8959 10.842L11.8899 10.8365L11.8819 10.8335L11.8714 10.8285L11.8409 10.8225L11.8019 10.817L11.7639 10.814L11.7259 10.8085L11.6919 10.8L11.6714 10.7915L11.9399 10.7315L11.9869 10.7175C12.0072 10.7098 12.0274 10.7017 12.0474 10.693L12.0739 10.676L12.0854 10.6655L12.0824 10.663L12.0774 10.657L12.0519 10.6515L12.0169 10.6485H11.9749L11.8899 10.6435L11.8549 10.6375L11.8324 10.632L11.8714 10.616C11.9297 10.598 11.9884 10.5813 12.0474 10.566C12.0807 10.5543 12.1146 10.5433 12.1489 10.533L12.2009 10.511L12.2254 10.4975L12.2479 10.484L12.2559 10.4755L12.2644 10.4645L12.2724 10.4565L12.2754 10.448L12.2724 10.4395L12.2644 10.4335L12.2559 10.4315H12.1799L12.1439 10.4335H12.0949L12.0804 10.4315L12.0709 10.4255L12.0589 10.42C12.1589 10.3537 12.2597 10.2885 12.3614 10.2245L12.4404 10.1695C12.4617 10.1519 12.4826 10.1338 12.5029 10.115L12.5274 10.0875L12.5499 10.06L12.5664 10.03L12.5799 10L12.5879 9.96651V9.93101H12.5694L12.5499 9.93401L12.5069 9.95001C12.4688 9.97388 12.4301 9.99688 12.3909 10.019L12.3694 10.033L12.3439 10.0435L12.3194 10.052L12.2969 10.0575L12.2754 10.0605H12.2499L12.2284 10.052L12.2949 10.0025C12.3482 9.95684 12.4012 9.91101 12.4539 9.86501C12.5119 9.80955 12.5686 9.7527 12.6239 9.69451L12.7029 9.60651C12.7262 9.57551 12.7502 9.54518 12.7749 9.51551C12.7946 9.48751 12.8137 9.45918 12.8324 9.43051L12.8384 9.42001L12.8404 9.41151L12.8384 9.40001L12.8354 9.39201L12.8324 9.38301L12.8244 9.37751L12.8159 9.36901L12.8079 9.36601L12.7974 9.36101L12.7854 9.35801H12.7639L12.7534 9.36101L12.7389 9.36301L12.7309 9.37201L12.7194 9.38051C12.6634 9.43651 12.6081 9.49334 12.5534 9.55101L12.4869 9.61401L12.3549 9.72701L12.2914 9.76801L12.2309 9.79851L12.2494 9.78201C12.2694 9.76301 12.2889 9.74384 12.3079 9.72451C12.3782 9.64318 12.4459 9.55984 12.5109 9.47451L12.6379 9.29601L12.6719 9.23601L12.7059 9.18101L12.7334 9.13101L12.7549 9.08401L12.7684 9.04601L12.7714 9.03251V9.01051L12.7684 9.00201L12.7584 8.98551L12.7524 8.98001L12.7434 8.97751L12.7279 8.96851L12.7074 8.96301H12.6699L12.6594 8.96601L12.6514 8.96851L12.6399 8.97451L12.6319 8.98251L12.6094 9.00201C12.5847 9.03165 12.5609 9.062 12.5379 9.09301C12.4829 9.17901 12.4252 9.26318 12.3649 9.34551L12.2954 9.42801L12.2604 9.46401L12.2224 9.49701L12.2714 9.40551L12.3484 9.24401L12.3984 9.12601L12.4199 9.06551L12.4579 8.94151C12.4676 8.90151 12.4761 8.86134 12.4834 8.82101C12.4867 8.78368 12.4897 8.74601 12.4924 8.70801L12.4884 8.68051L12.4864 8.65601L12.4834 8.63051L12.4754 8.59851L12.4694 8.58951L12.4559 8.57601L12.4374 8.56801L12.4169 8.56201H12.3984L12.3809 8.56501L12.3759 8.56801L12.3679 8.57001L12.3649 8.57601C12.3154 8.73201 12.2779 8.89101 12.2349 9.04851L12.1859 9.18051L12.1449 9.26001L12.1194 9.29551L12.1359 9.21651C12.1439 9.17085 12.1511 9.12501 12.1574 9.07901L12.1689 8.96601L12.1719 8.91901L12.1659 8.84751L12.1609 8.82001L12.1529 8.79801L12.1414 8.78151L12.1354 8.77601L12.1189 8.77051L12.1109 8.76751H12.1019L12.0939 8.77051L12.0714 8.77601L12.0499 8.78701C12.0329 8.87201 12.0127 8.95634 11.9894 9.04001C11.9568 9.14538 11.9184 9.24887 11.8744 9.35001C11.8447 9.41214 11.8133 9.4735 11.7804 9.53401L11.7199 9.63851L11.6544 9.73701C11.6104 9.79848 11.5649 9.85883 11.5179 9.91801C11.4719 9.96968 11.4251 10.021 11.3774 10.072C11.3281 10.1207 11.2776 10.1685 11.2259 10.2155C11.1729 10.2592 11.1192 10.302 11.0649 10.344C10.9983 10.3919 10.9303 10.4378 10.8609 10.4815L10.7399 10.5525L10.5474 10.641L10.3494 10.712L10.1854 10.762L10.0154 10.8L9.93041 10.814L9.75641 10.836L9.66841 10.8415L9.65991 10.8445L9.65141 10.847L9.63491 10.856L9.61641 10.869L9.55291 10.9265L9.50891 10.971L9.34941 11.149L9.28891 11.2095L9.21791 11.264L9.18991 11.283L9.16241 11.3L9.10241 11.3275C9.00941 11.3655 8.91491 11.4 8.82141 11.4375L8.79691 11.451L8.77491 11.4625L8.75891 11.473L8.72841 11.5035L8.71991 11.517L8.71391 11.5305L8.71191 11.55V11.564" fill="#FFCC4D"/>
<path d="M9.72047 11.6875L9.76647 11.6935L9.78897 11.702L9.79397 11.7045V11.7075H9.78897L9.78297 11.71L9.73897 11.7185H9.70397L9.58897 11.71L9.29747 11.7045C9.22047 11.7055 9.14347 11.7074 9.06647 11.71C8.9988 11.715 8.93097 11.7205 8.86297 11.7265L8.81047 11.735L8.76397 11.7455C8.7533 11.7495 8.74247 11.7532 8.73147 11.7565L8.71747 11.7625L8.70647 11.771L8.71147 11.743L8.72347 11.715L8.68497 11.726L8.65197 11.7425L8.63897 11.751L8.62747 11.762L8.61897 11.775L8.61697 11.789L8.60897 11.77L8.60297 11.753L8.59697 11.7175C8.6003 11.7032 8.60297 11.6887 8.60497 11.674L8.61397 11.66L8.61897 11.649L8.63047 11.636L8.65247 11.614L8.68247 11.5945L8.71647 11.5755C8.73438 11.586 8.75353 11.5943 8.77347 11.6C8.79314 11.6021 8.81302 11.6002 8.83197 11.5945C8.86247 11.6215 8.94147 11.616 8.95247 11.567C8.95673 11.549 8.95673 11.5301 8.95247 11.512L8.98547 11.5095L9.02397 11.5035L9.10897 11.4815L9.15347 11.473L9.19447 11.4625L9.23297 11.457L9.26547 11.454L9.25197 11.4655L9.18047 11.52L9.15347 11.539L9.18847 11.548L9.21897 11.5535L9.15397 11.6275L9.13697 11.6495L9.15847 11.658L9.18047 11.664L9.20547 11.6695H9.25497L9.30397 11.6585L9.32347 11.647L9.34597 11.6585L9.36797 11.667C9.38197 11.671 9.3963 11.6747 9.41097 11.678L9.51347 11.6885H9.72047M9.46997 10.8525L9.44547 10.902L9.41747 10.9655C9.40319 10.9915 9.38969 11.0178 9.37697 11.0445L9.36297 11.0585L9.33047 11.031L9.29447 11.006L9.25597 10.9865L9.21547 10.9705L9.12697 10.948L9.08347 10.94C9.0359 10.9346 8.98822 10.9301 8.94047 10.9265C8.87722 10.9255 8.81403 10.9225 8.75097 10.9175L8.66297 10.907L8.61347 10.8985L8.56697 10.888L8.51797 10.871L8.47647 10.8495L8.44597 10.8295L8.38297 10.783C8.29097 10.6965 8.19997 10.609 8.10547 10.5245L8.05097 10.4865L8.02597 10.4755L7.99997 10.4675L7.95347 10.457L7.87147 10.4295L7.79397 10.394C7.74855 10.3661 7.70465 10.3357 7.66247 10.303L7.63497 10.2775L7.58047 10.223L7.52797 10.1655C7.44147 10.06 7.35997 9.95104 7.27547 9.84404C7.23505 9.80115 7.19388 9.75898 7.15197 9.71754L7.11647 9.68504L7.08047 9.65504L7.00147 9.59754L6.99347 9.60004L6.98447 9.60854L6.97597 9.61954C6.97097 9.63221 6.96664 9.64504 6.96297 9.65804L6.95997 9.66904L6.93997 9.66004L6.92347 9.65154L6.90347 9.64304L6.88697 9.63754H6.85147L6.83197 9.64304L6.81297 9.65154C6.82797 9.67054 6.84247 9.68971 6.85647 9.70904L6.88097 9.74754L6.92547 9.83254L6.94147 9.87404L6.94747 9.89604L6.95347 9.91254L6.95597 9.93154V9.94754H6.80797L6.82947 9.98054C6.84614 10.0029 6.8633 10.0249 6.88097 10.0465L6.97197 10.1375L7.00247 10.162L7.03047 10.1815L6.95897 10.1875L6.88697 10.1955L6.91147 10.218C6.9328 10.233 6.95397 10.2485 6.97497 10.2645L7.01047 10.289L7.04647 10.311L7.08197 10.3305L7.11497 10.3415L7.14547 10.3495L7.16997 10.355L7.17797 10.358L7.18397 10.364L7.18597 10.3665V10.377L7.17797 10.3995L7.17597 10.4155L7.17247 10.4265V10.4345L7.17597 10.4485L7.17797 10.4595L7.18397 10.4645L7.19197 10.4705L7.20247 10.476L7.21647 10.479L7.24447 10.49L7.25797 10.495L7.26897 10.5035L7.27147 10.5065V10.512L7.26897 10.515L7.24697 10.531L7.23597 10.542L7.22497 10.5555V10.567L7.22247 10.578L7.22797 10.6075L7.32397 10.6405L7.34597 10.6455L7.36797 10.6545L7.38447 10.663L7.39847 10.6715L7.30747 10.743L7.33197 10.765L7.36247 10.7815L7.40097 10.8005C7.4283 10.8105 7.45597 10.8199 7.48397 10.8285L7.52497 10.8365L7.56097 10.845H7.59347L7.56297 10.867L7.52447 10.8915L7.48347 10.914L7.45297 10.936L7.48047 10.955C7.5638 10.9984 7.64914 11.0379 7.73647 11.0735C7.8888 11.1352 8.04347 11.19 8.20047 11.238C8.23547 11.2464 8.27014 11.2555 8.30447 11.2655L8.34847 11.274L8.25997 11.2655C8.20497 11.2583 8.15012 11.25 8.09547 11.2405L8.01847 11.224L7.86697 11.1805L7.79597 11.1555C7.60597 11.0815 7.42047 10.9965 7.22997 10.9245L7.24397 10.9165L7.28247 10.9025L7.30697 10.897C7.3403 10.887 7.3733 10.876 7.40597 10.864C7.34049 10.8542 7.27529 10.8426 7.21047 10.829C7.17686 10.8182 7.14302 10.808 7.10897 10.7985L7.08947 10.79L7.07297 10.7815L7.05947 10.7725L7.05047 10.7645V10.762L7.05347 10.759L7.06197 10.756L7.06997 10.7505L7.09197 10.742L7.18797 10.714L7.24347 10.695C7.1638 10.68 7.08397 10.6664 7.00397 10.654L6.96547 10.645L6.93497 10.6345L6.92397 10.6285L6.91347 10.62L6.90447 10.615L6.89897 10.606L6.90747 10.6005L6.93197 10.595C6.95764 10.591 6.9833 10.5865 7.00897 10.5815L7.05297 10.576C7.07797 10.569 7.10264 10.5615 7.12697 10.5535L7.13847 10.5455L7.14947 10.5365L7.10597 10.52L7.07797 10.515L7.05047 10.509L6.92447 10.4925L6.89147 10.4845L6.86097 10.4785L6.80047 10.457L6.77247 10.443L6.74997 10.427L6.72797 10.4075L6.71147 10.383L6.71747 10.38L6.72797 10.377H6.74197L6.76397 10.38L6.86847 10.3855L6.92947 10.3915H7.00597L7.02747 10.3885L7.04447 10.383L7.05547 10.377C7.00373 10.356 6.95239 10.334 6.90147 10.311C6.86779 10.2939 6.83378 10.2774 6.79947 10.2615L6.69547 10.207L6.64597 10.1765L6.55547 10.1105L6.51697 10.0775L6.49997 10.0585L6.48297 10.042L6.47247 10.0255L6.46097 10.006L6.44997 9.99004L6.44397 9.97104L6.43947 9.93554H6.45797L6.47997 9.93804L6.50197 9.94704L6.52397 9.95504L6.56747 9.98254L6.61697 10.01L6.63897 10.024L6.66347 10.037L6.68797 10.048L6.70997 10.0565L6.73447 10.0625L6.75647 10.065H6.78147L6.80297 10.0565L6.73797 10.0065C6.68412 9.96184 6.63095 9.91633 6.57847 9.87004C6.49155 9.78709 6.40798 9.70068 6.32797 9.61104L6.29297 9.56454L6.25697 9.52054L6.19897 9.43504L6.19397 9.42404V9.40504L6.19647 9.39654L6.19897 9.38854L6.20747 9.38304L6.21547 9.37454L6.22447 9.36854L6.23497 9.36554L6.24597 9.36354H6.26797L6.28147 9.36554L6.29347 9.36854L6.30397 9.37704C6.3633 9.43604 6.4218 9.49571 6.47947 9.55604C6.5428 9.61704 6.6088 9.67571 6.67747 9.73204L6.74047 9.77254L6.77297 9.78954L6.80347 9.80004L6.78197 9.78654L6.72447 9.72904C6.65447 9.64771 6.58664 9.56437 6.52097 9.47904L6.43547 9.35804C6.4106 9.31819 6.38493 9.27885 6.35847 9.24004C6.33746 9.2057 6.31729 9.17086 6.29797 9.13554L6.26297 9.05054L6.25947 9.03704V9.01454L6.26297 9.00654L6.27347 8.99004L6.27947 8.98404L6.28797 8.97904L6.32347 8.96754H6.36197L6.37297 8.97004L6.38097 8.97304L6.39197 8.97904L6.42247 9.00654L6.49397 9.09754C6.54997 9.18354 6.60864 9.26771 6.66997 9.35004L6.73497 9.43254L6.77097 9.46804L6.80947 9.50104C6.76565 9.41796 6.72364 9.33394 6.68347 9.24904L6.63397 9.13104L6.61197 9.07054C6.60048 9.0288 6.58764 8.98745 6.57347 8.94654L6.55997 8.88604L6.54997 8.82454L6.54397 8.76704L6.54147 8.71254L6.54397 8.68504L6.54747 8.66004L6.54997 8.63504L6.55547 8.61054L6.56097 8.60154L6.56397 8.59354L6.57197 8.58454L6.57747 8.57954L6.59647 8.57104L6.61597 8.56604H6.63497L6.65147 8.56904L6.65947 8.57104L6.66547 8.57404L6.66847 8.58004L6.67147 8.58804C6.71847 8.74154 6.75697 8.89754 6.79747 9.05304C6.81347 9.09637 6.83014 9.13937 6.84747 9.18204L6.86647 9.22304L6.88847 9.26154L6.91297 9.30004L6.89697 9.22004C6.89069 9.17438 6.88335 9.12886 6.87497 9.08354C6.86952 9.03046 6.86502 8.97728 6.86147 8.92404L6.86697 8.85254L6.87247 8.82454L6.88097 8.80304L6.89197 8.78654L6.89747 8.78054L6.90547 8.77504L6.91347 8.77254H6.93847L6.96097 8.78054L6.98247 8.79154L7.02097 8.96454C7.03497 9.01721 7.05047 9.06937 7.06747 9.12104C7.09547 9.19971 7.1258 9.27754 7.15847 9.35454L7.19697 9.43404L7.25197 9.53904L7.31197 9.64304L7.37847 9.74204L7.44947 9.84054L7.51597 9.92304C7.56197 9.97504 7.60864 10.0264 7.65597 10.077C7.70564 10.1257 7.75614 10.1732 7.80747 10.2195L7.88697 10.286C7.95997 10.343 8.03514 10.397 8.11247 10.448C8.17314 10.484 8.23447 10.5189 8.29647 10.5525L8.48547 10.6435C8.58147 10.6815 8.67847 10.7162 8.77647 10.7475C8.87247 10.7732 8.96964 10.7952 9.06797 10.8135C9.19997 10.8342 9.33397 10.8472 9.46997 10.8525Z" fill="#FFCC4D"/>
<path d="M1.72853 14.261C1.72853 14.261 1.61003 14.3595 1.57003 14.31C1.50553 14.23 1.76853 13.8305 1.76853 13.6895C1.76853 13.459 1.61403 13.395 1.42403 13.3625C1.29603 13.3405 1.08853 13.372 1.08853 13.372C1.12753 13.4245 1.15303 13.441 1.21903 13.444C1.1734 13.4677 1.13534 13.5038 1.10918 13.5481C1.08302 13.5923 1.0698 13.6431 1.07103 13.6945C1.07103 13.8925 1.15303 13.9745 1.15303 14.199C1.15303 14.3235 1.05103 14.4815 1.05103 14.4815C1.23103 14.4635 1.32103 14.297 1.27003 14.163C1.2838 14.1602 1.29805 14.161 1.31148 14.1651C1.32492 14.1692 1.33713 14.1765 1.34703 14.1865C1.36003 14.15 1.33953 14.1065 1.31153 14.07C1.33403 14.0585 1.35053 14.0655 1.38603 14.0725C1.38253 14.0345 1.35953 13.9945 1.30403 13.9565C1.46603 13.998 1.56553 13.8855 1.56553 13.7675C1.56553 13.6775 1.50303 13.6135 1.44153 13.6135C1.41825 13.6143 1.39563 13.6214 1.37603 13.634C1.36453 13.61 1.37053 13.577 1.38203 13.5525C1.33753 13.564 1.30903 13.5905 1.32953 13.6465C1.31428 13.6467 1.29924 13.6502 1.28539 13.6565C1.27153 13.6629 1.25915 13.6721 1.24903 13.6835C1.2588 13.6953 1.27114 13.7046 1.28509 13.7108C1.29905 13.7171 1.31425 13.72 1.32953 13.7195C1.30453 13.7715 1.33253 13.801 1.37303 13.824C1.37303 13.824 1.34703 13.7195 1.41353 13.7195C1.44353 13.7195 1.47053 13.73 1.47053 13.7735C1.47053 13.811 1.43703 13.864 1.36003 13.861C1.28253 13.8575 1.22003 13.8075 1.22003 13.685C1.22003 13.5705 1.31153 13.514 1.43203 13.5105C1.54103 13.507 1.62303 13.566 1.62303 13.6785C1.62303 13.8275 1.40703 14.1685 1.40703 14.3015C1.40703 14.4015 1.49653 14.457 1.58453 14.457C1.69853 14.457 1.79453 14.344 1.79453 14.344L1.72853 14.261ZM1.70353 11.56C1.70353 11.311 1.92753 11.1825 2.10353 11.1825C2.34053 11.1825 2.46703 11.3245 2.46703 11.5095C2.46703 11.6155 2.44753 11.6815 2.39903 11.782L1.85553 12.9105C1.83613 12.958 1.82742 13.0092 1.83003 13.0605C1.83003 13.1615 1.92853 13.2445 2.03153 13.247C2.12503 13.2495 2.22753 13.1595 2.22753 13.057C2.22753 12.9325 2.16353 12.8775 2.09703 12.8775C2.01553 12.8775 1.98303 12.9105 1.98303 12.968C1.98303 13.0085 2.00253 13.0255 2.03003 13.0255C2.10003 13.0255 2.08053 12.9315 2.08053 12.9315C2.08984 12.9334 2.09862 12.9374 2.10623 12.9431C2.11385 12.9488 2.12012 12.9561 2.1246 12.9645C2.12908 12.9729 2.13167 12.9822 2.13217 12.9917C2.13268 13.0012 2.13109 13.0107 2.12753 13.0195C2.15367 13.0251 2.17733 13.0389 2.19503 13.059C2.17698 13.0781 2.15336 13.0911 2.12753 13.096C2.14403 13.15 2.12203 13.1765 2.07503 13.188C2.08291 13.1697 2.08517 13.1495 2.08153 13.13C2.00703 13.151 1.89303 13.118 1.89303 12.989C1.89303 12.861 1.98153 12.7535 2.14803 12.78C2.10803 12.762 2.08853 12.7235 2.08453 12.6795C2.11453 12.692 2.14803 12.6935 2.14803 12.6935C2.12853 12.6595 2.10153 12.63 2.10253 12.562C2.13353 12.5765 2.16203 12.602 2.20153 12.5855C2.13953 12.464 2.21553 12.297 2.40953 12.2565C2.34367 12.3281 2.30616 12.4212 2.30403 12.5185C2.30403 12.8085 2.38503 12.8565 2.38503 13.0575C2.38353 13.1043 2.37108 13.1502 2.34868 13.1913C2.32627 13.2325 2.29454 13.2678 2.25603 13.2945V13.291C2.31203 13.306 2.34853 13.3345 2.36953 13.372C2.24003 13.4085 2.05153 13.408 1.95103 13.3685C1.90547 13.3619 1.86196 13.3452 1.82364 13.3197C1.78533 13.2942 1.75318 13.2605 1.72953 13.221C1.70517 13.1646 1.69261 13.1039 1.69261 13.0425C1.69261 12.9811 1.70517 12.9204 1.72953 12.864C1.80653 12.7035 2.16953 11.934 2.28253 11.6915C2.30699 11.6399 2.32012 11.5836 2.32103 11.5265C2.32103 11.379 2.18553 11.327 2.10853 11.327C2.01603 11.327 1.92203 11.398 1.92203 11.485C1.92203 11.541 1.95253 11.574 1.99553 11.574C2.10003 11.574 2.09353 11.4855 2.07253 11.4295C2.13703 11.4595 2.17503 11.5105 2.16453 11.5655C2.20153 11.5705 2.23653 11.588 2.26853 11.624C2.24303 11.657 2.21203 11.681 2.16453 11.6815C2.18553 11.7665 2.12853 11.8025 2.07253 11.822C2.09003 11.76 2.10153 11.6875 1.99553 11.6875C1.91803 11.6875 1.85703 11.674 1.82153 11.6235C1.81903 11.691 1.81253 11.956 1.81253 11.956C1.80853 12.056 1.94603 12.053 2.03353 12.0235C2.00003 12.1385 1.93253 12.201 1.77503 12.185C1.79902 12.1945 1.81949 12.2111 1.83363 12.2327C1.84778 12.2543 1.8549 12.2797 1.85403 12.3055C1.85403 12.3995 1.77803 12.503 1.72853 12.534L1.70353 11.56Z" fill="#FFCC4D"/>
<path d="M1.753 11.56C1.753 11.311 1.529 11.1825 1.353 11.1825C1.116 11.1825 0.989502 11.3245 0.989502 11.5095C0.989502 11.6155 1.009 11.6815 1.0575 11.782L1.601 12.9105C1.62023 12.9581 1.62876 13.0093 1.626 13.0605C1.626 13.1615 1.5275 13.2445 1.425 13.247C1.331 13.2495 1.229 13.1595 1.229 13.057C1.229 12.9325 1.293 12.8775 1.3595 12.8775C1.441 12.8775 1.4735 12.9105 1.4735 12.968C1.4735 13.0085 1.454 13.0255 1.4265 13.0255C1.3565 13.0255 1.376 12.9315 1.376 12.9315C1.36669 12.9335 1.35791 12.9375 1.3503 12.9432C1.34268 12.9489 1.33641 12.9562 1.33193 12.9646C1.32744 12.973 1.32486 12.9822 1.32435 12.9917C1.32385 13.0012 1.32544 13.0107 1.329 13.0195C1.30286 13.0252 1.2792 13.039 1.2615 13.059C1.27955 13.0782 1.30317 13.0911 1.329 13.096C1.313 13.15 1.335 13.1765 1.382 13.1875C1.37412 13.1693 1.37185 13.1491 1.3755 13.1295C1.45 13.1505 1.564 13.1175 1.564 12.9885C1.564 12.8605 1.4755 12.753 1.3095 12.7795C1.349 12.7615 1.369 12.723 1.3725 12.679C1.3524 12.6871 1.33112 12.6918 1.3095 12.693C1.3285 12.659 1.3555 12.6295 1.3545 12.5615C1.3235 12.576 1.2955 12.6015 1.2555 12.585C1.3175 12.4635 1.2415 12.2965 1.0475 12.256C1.11336 12.3276 1.15086 12.4208 1.153 12.518C1.153 12.808 1.0725 12.856 1.0725 13.057C1.0725 13.141 1.116 13.2325 1.2015 13.294V13.2905C1.17793 13.2953 1.15563 13.3049 1.13607 13.3189C1.1165 13.3328 1.10012 13.3508 1.088 13.3715C1.2175 13.408 1.4055 13.4075 1.5065 13.368C1.55206 13.3614 1.59557 13.3448 1.63388 13.3193C1.6722 13.2938 1.70435 13.26 1.728 13.2205C1.75236 13.1642 1.76492 13.1034 1.76492 13.042C1.76492 12.9807 1.75236 12.9199 1.728 12.8635C1.651 12.703 1.288 11.9335 1.175 11.691C1.15053 11.6394 1.13741 11.5832 1.1365 11.526C1.1365 11.3785 1.272 11.3265 1.349 11.3265C1.4415 11.3265 1.5355 11.3975 1.5355 11.4845C1.5355 11.5405 1.505 11.5735 1.462 11.5735C1.3575 11.5735 1.364 11.485 1.3845 11.429C1.32 11.459 1.282 11.51 1.2925 11.565C1.25191 11.5713 1.21496 11.5921 1.1885 11.6235C1.214 11.6565 1.245 11.6805 1.2925 11.681C1.2715 11.766 1.3285 11.802 1.3845 11.8215C1.367 11.7595 1.3555 11.687 1.462 11.687C1.5395 11.687 1.6005 11.6735 1.636 11.623L1.645 11.9555C1.649 12.0555 1.511 12.0525 1.4235 12.023C1.4565 12.1375 1.5245 12.2 1.6815 12.184C1.65751 12.1935 1.63704 12.2102 1.62289 12.2318C1.60875 12.2533 1.60163 12.2788 1.6025 12.3045C1.6025 12.3985 1.678 12.502 1.728 12.533L1.753 11.56ZM1.7285 14.261C1.7285 14.261 1.847 14.3595 1.887 14.31C1.9515 14.23 1.6885 13.8305 1.6885 13.6895C1.6885 13.459 1.843 13.395 2.033 13.3625C2.161 13.3405 2.369 13.372 2.369 13.372C2.3295 13.4245 2.3045 13.441 2.2385 13.444C2.28376 13.4682 2.32149 13.5044 2.34759 13.5486C2.37369 13.5927 2.38715 13.6432 2.3865 13.6945C2.3865 13.8925 2.3045 13.9745 2.3045 14.199C2.3045 14.3235 2.4065 14.4815 2.4065 14.4815C2.2265 14.4635 2.1365 14.297 2.1875 14.163C2.17372 14.1607 2.15959 14.1616 2.14623 14.1657C2.13286 14.1698 2.12063 14.1769 2.1105 14.1865C2.0975 14.15 2.1185 14.1065 2.146 14.07C2.1235 14.0585 2.107 14.0655 2.0715 14.0725C2.075 14.0345 2.0975 13.9945 2.1535 13.9565C1.9915 13.998 1.892 13.8855 1.892 13.7675C1.892 13.6775 1.9545 13.6135 2.016 13.6135C2.036 13.6135 2.065 13.622 2.0815 13.634C2.093 13.61 2.087 13.577 2.075 13.5525C2.12 13.564 2.148 13.5905 2.128 13.6465C2.14325 13.6468 2.15828 13.6502 2.17214 13.6566C2.186 13.663 2.19838 13.6721 2.2085 13.6835C2.19873 13.6953 2.18639 13.7047 2.17243 13.7109C2.15848 13.7171 2.14328 13.7201 2.128 13.7195C2.153 13.7715 2.125 13.801 2.0845 13.824C2.0845 13.824 2.1105 13.7195 2.044 13.7195C2.014 13.7195 1.987 13.73 1.987 13.7735C1.987 13.811 2.0205 13.864 2.0975 13.861C2.1745 13.858 2.237 13.8075 2.237 13.685C2.237 13.5705 2.1455 13.514 2.025 13.5105C1.916 13.507 1.834 13.566 1.834 13.6785C1.834 13.8275 2.05 14.1685 2.05 14.3015C2.05 14.4015 1.9605 14.457 1.8725 14.457C1.7585 14.457 1.6625 14.344 1.6625 14.344L1.7285 14.261ZM1.7035 7.18855C1.7035 6.93855 1.9275 6.81055 2.1035 6.81055C2.3405 6.81055 2.467 6.95255 2.467 7.13805C2.467 7.24355 2.4475 7.30955 2.399 7.41005L1.8555 8.53905C1.83618 8.58642 1.82747 8.63745 1.83 8.68855C1.83 8.79005 1.9285 8.87255 2.0315 8.87555C2.125 8.87755 2.2275 8.78755 2.2275 8.68555C2.2275 8.56155 2.1635 8.50605 2.097 8.50605C2.0155 8.50605 1.983 8.53955 1.983 8.59705C1.983 8.63655 2.0025 8.65405 2.03 8.65405C2.1 8.65405 2.0805 8.56005 2.0805 8.56005C2.08969 8.56202 2.09835 8.56596 2.10587 8.5716C2.11339 8.57723 2.1196 8.58444 2.12407 8.59271C2.12853 8.60098 2.13115 8.61012 2.13175 8.6195C2.13234 8.62888 2.13089 8.63828 2.1275 8.64705C2.15371 8.65279 2.17738 8.66681 2.195 8.68705C2.17682 8.70609 2.15328 8.71917 2.1275 8.72455C2.144 8.77855 2.122 8.80455 2.075 8.81605C2.08289 8.79779 2.08515 8.7776 2.0815 8.75805C2.007 8.77905 1.893 8.74605 1.893 8.61705C1.893 8.48955 1.9815 8.38205 2.148 8.40855C2.108 8.38955 2.0885 8.35105 2.0845 8.30805C2.1145 8.32005 2.148 8.32105 2.148 8.32105C2.1285 8.28705 2.1015 8.25755 2.1025 8.19005C2.1335 8.20405 2.162 8.23005 2.2015 8.21355C2.1395 8.09155 2.2155 7.92405 2.4095 7.88455C2.34365 7.95615 2.30614 8.04929 2.304 8.14655C2.304 8.43605 2.385 8.48455 2.385 8.68605C2.385 8.77005 2.3415 8.86105 2.256 8.92305V8.91955C2.311 8.93455 2.347 8.96205 2.3685 9.00005C2.239 9.03705 2.0505 9.03605 1.95 8.99655C1.90445 8.98995 1.86093 8.97329 1.82262 8.94777C1.78431 8.92226 1.75216 8.88854 1.7285 8.84905C1.70429 8.79283 1.6918 8.73226 1.6918 8.67105C1.6918 8.60983 1.70429 8.54927 1.7285 8.49305C1.8055 8.33205 2.1685 7.56255 2.2815 7.32005C2.30597 7.26843 2.3191 7.21217 2.32 7.15505C2.32 7.00705 2.1845 6.95505 2.1075 6.95505C2.015 6.95505 1.921 7.02555 1.921 7.11255C1.921 7.16855 1.9515 7.20205 1.9945 7.20205C2.099 7.20205 2.0925 7.11305 2.0715 7.05755C2.136 7.08655 2.174 7.13855 2.1635 7.19355C2.2005 7.19855 2.2355 7.21555 2.2675 7.25255C2.242 7.28455 2.211 7.30855 2.1635 7.30955C2.1845 7.39505 2.1275 7.43105 2.0715 7.45055C2.089 7.38855 2.1005 7.31655 1.9945 7.31655C1.917 7.31655 1.856 7.30305 1.8205 7.25305C1.818 7.32005 1.8115 7.58555 1.8115 7.58555C1.8075 7.68505 1.945 7.68255 2.0325 7.65255C2 7.76755 1.9325 7.82955 1.775 7.81355C1.79908 7.82305 1.81961 7.8398 1.83376 7.86147C1.84791 7.88315 1.85498 7.90868 1.854 7.93455C1.854 8.02805 1.778 8.13205 1.7285 8.16255L1.7035 7.18855Z" fill="#FFCC4D"/>
<path d="M1.753 7.18855C1.753 6.93855 1.529 6.81055 1.353 6.81055C1.116 6.81055 0.989502 6.95255 0.989502 7.13805C0.989502 7.24355 1.009 7.30955 1.0575 7.41005L1.601 8.53905C1.62 8.57855 1.626 8.62305 1.626 8.68855C1.626 8.79005 1.5275 8.87255 1.425 8.87555C1.331 8.87755 1.229 8.78755 1.229 8.68555C1.229 8.56155 1.293 8.50605 1.3595 8.50605C1.441 8.50605 1.4735 8.53955 1.4735 8.59705C1.4735 8.63655 1.454 8.65405 1.4265 8.65405C1.3565 8.65405 1.376 8.56005 1.376 8.56005C1.36672 8.56186 1.35796 8.5657 1.35034 8.5713C1.34272 8.5769 1.33644 8.58412 1.33195 8.59244C1.32745 8.60076 1.32486 8.60997 1.32435 8.61941C1.32384 8.62886 1.32543 8.63829 1.329 8.64705C1.30279 8.65279 1.27913 8.66681 1.2615 8.68705C1.27968 8.70609 1.30322 8.71917 1.329 8.72455C1.313 8.77855 1.3345 8.80455 1.3815 8.81605C1.37362 8.79779 1.37135 8.7776 1.375 8.75805C1.4495 8.77905 1.5635 8.74605 1.5635 8.61705C1.5635 8.48955 1.475 8.38205 1.309 8.40855C1.3485 8.38955 1.3685 8.35105 1.372 8.30805C1.342 8.32005 1.309 8.32105 1.309 8.32105C1.328 8.28705 1.355 8.25755 1.354 8.19005C1.323 8.20405 1.295 8.23005 1.255 8.21355C1.317 8.09155 1.241 7.92405 1.047 7.88455C1.11286 7.95615 1.15036 8.04929 1.1525 8.14655C1.1525 8.43605 1.072 8.48455 1.072 8.68605C1.072 8.77005 1.1155 8.86105 1.201 8.92305V8.91955C1.146 8.93488 1.1085 8.96171 1.0885 9.00005C1.218 9.03705 1.406 9.03605 1.507 8.99655C1.55256 8.98995 1.59607 8.97329 1.63438 8.94777C1.6727 8.92226 1.70485 8.88854 1.7285 8.84905C1.75271 8.79283 1.7652 8.73226 1.7652 8.67105C1.7652 8.60983 1.75271 8.54927 1.7285 8.49305C1.6515 8.33205 1.2885 7.56255 1.1755 7.32005C1.1511 7.26858 1.13798 7.2125 1.137 7.15555C1.137 7.00755 1.2725 6.95555 1.3495 6.95555C1.442 6.95555 1.536 7.02605 1.536 7.11305C1.536 7.16905 1.5055 7.20255 1.4625 7.20255C1.358 7.20255 1.3645 7.11355 1.385 7.05805C1.3205 7.08705 1.2825 7.13905 1.293 7.19405C1.25218 7.20002 1.21507 7.22107 1.189 7.25305C1.2145 7.28505 1.2455 7.30905 1.293 7.31005C1.272 7.39555 1.329 7.43155 1.385 7.45105C1.3675 7.38905 1.356 7.31705 1.4625 7.31705C1.54 7.31705 1.601 7.30355 1.6365 7.25355L1.645 7.58505C1.649 7.68455 1.511 7.68205 1.4235 7.65205C1.4565 7.76705 1.5245 7.82905 1.6815 7.81355C1.65743 7.82305 1.6369 7.8398 1.62275 7.86147C1.60859 7.88315 1.60152 7.90868 1.6025 7.93455C1.6025 8.02805 1.678 8.13205 1.728 8.16255L1.753 7.18855Z" fill="#FFCC4D"/>
<path d="M1.75305 6.43953C1.75305 6.68903 1.52905 6.81753 1.35305 6.81753C1.11605 6.81753 0.989547 6.67553 0.989547 6.48953C0.989547 6.38453 1.00905 6.31853 1.05755 6.21753L1.60105 5.08853C1.6202 5.04112 1.62873 4.99009 1.62605 4.93903C1.62605 4.83803 1.52755 4.75503 1.42505 4.75253C1.33105 4.75053 1.22905 4.84003 1.22905 4.94253C1.22905 5.06703 1.29305 5.12203 1.35955 5.12203C1.44105 5.12203 1.47355 5.08853 1.47355 5.03103C1.47355 4.99103 1.45405 4.97403 1.42655 4.97403C1.35655 4.97403 1.37605 5.06803 1.37605 5.06803C1.36679 5.06607 1.35808 5.06212 1.35051 5.05645C1.34294 5.05078 1.3367 5.04353 1.33223 5.03519C1.32775 5.02686 1.32515 5.01766 1.3246 5.00821C1.32405 4.99877 1.32557 4.98933 1.32905 4.98053C1.30277 4.97527 1.279 4.96137 1.26155 4.94103C1.2798 4.92217 1.30333 4.90927 1.32905 4.90403C1.31305 4.85003 1.33505 4.82403 1.38205 4.81253C1.37416 4.83079 1.3719 4.85098 1.37555 4.87053C1.45005 4.84953 1.56405 4.88353 1.56405 5.01153C1.56405 5.13953 1.47555 5.24653 1.30955 5.22003C1.34905 5.23903 1.36905 5.27753 1.37255 5.32053C1.35219 5.3135 1.33102 5.30913 1.30955 5.30753C1.32855 5.34153 1.35555 5.37103 1.35455 5.43853C1.32355 5.42453 1.29555 5.39853 1.25555 5.41503C1.31755 5.53703 1.24155 5.70453 1.04755 5.74453C1.11352 5.6728 1.15103 5.57946 1.15305 5.48203C1.15305 5.19303 1.07255 5.14403 1.07255 4.94303C1.07255 4.85903 1.11605 4.76803 1.20155 4.70603V4.70953C1.17802 4.7047 1.15579 4.69494 1.13631 4.68089C1.11684 4.66684 1.10056 4.64883 1.08855 4.62803C1.21805 4.59153 1.40605 4.59203 1.50705 4.63203C1.55265 4.63869 1.59619 4.65542 1.6345 4.68102C1.67282 4.70663 1.70495 4.74045 1.72855 4.78003C1.75276 4.83625 1.76525 4.89682 1.76525 4.95803C1.76525 5.01924 1.75276 5.07981 1.72855 5.13603C1.65155 5.29703 1.28855 6.06653 1.17555 6.30853C1.15115 6.36 1.13802 6.41608 1.13705 6.47303C1.13705 6.62153 1.27255 6.67303 1.34955 6.67303C1.44205 6.67303 1.53605 6.60253 1.53605 6.51503C1.53605 6.45953 1.50555 6.42553 1.46255 6.42553C1.35805 6.42553 1.36455 6.51403 1.38505 6.57003C1.32055 6.54103 1.28255 6.48903 1.29305 6.43403C1.25222 6.42806 1.21512 6.40701 1.18905 6.37503C1.21455 6.34303 1.24555 6.31853 1.29305 6.31803C1.27205 6.23303 1.32905 6.19653 1.38505 6.17653C1.36755 6.23903 1.35605 6.31153 1.46255 6.31153C1.54005 6.31153 1.60105 6.32453 1.63655 6.37503L1.64555 6.04203C1.64955 5.94253 1.51155 5.94553 1.42405 5.97503C1.45705 5.86003 1.52505 5.79803 1.68205 5.81353C1.65797 5.80402 1.63744 5.78728 1.62329 5.7656C1.60914 5.74393 1.60207 5.7184 1.60305 5.69253C1.60305 5.59903 1.67855 5.49503 1.72855 5.46453L1.75305 6.43953ZM1.75305 10.8115C1.75305 11.061 1.52905 11.189 1.35305 11.189C1.11605 11.189 0.989547 11.0475 0.989547 10.862C0.988335 10.767 1.01176 10.6733 1.05755 10.59L1.60105 9.46103C1.6202 9.41362 1.62873 9.36259 1.62605 9.31153C1.62605 9.21003 1.52755 9.12753 1.42505 9.12503C1.33105 9.12253 1.22905 9.21253 1.22905 9.31453C1.22905 9.43853 1.29305 9.49403 1.35955 9.49403C1.44105 9.49403 1.47355 9.46053 1.47355 9.40303C1.47355 9.36353 1.45405 9.34653 1.42655 9.34653C1.35655 9.34653 1.37605 9.44053 1.37605 9.44053C1.36679 9.43858 1.35808 9.43462 1.35051 9.42895C1.34294 9.42328 1.3367 9.41603 1.33223 9.40769C1.32775 9.39936 1.32515 9.39016 1.3246 9.38071C1.32405 9.37127 1.32557 9.36183 1.32905 9.35303C1.3027 9.34764 1.27893 9.33355 1.26155 9.31303C1.27959 9.2939 1.30321 9.28096 1.32905 9.27603C1.31305 9.22153 1.33455 9.19553 1.38155 9.18403C1.37366 9.20229 1.3714 9.22248 1.37505 9.24203C1.44955 9.22103 1.56355 9.25453 1.56355 9.38303C1.56355 9.51053 1.47505 9.61753 1.30905 9.59153C1.34855 9.61103 1.36855 9.64903 1.37205 9.69253C1.34205 9.68103 1.30905 9.67903 1.30905 9.67903C1.32805 9.71303 1.35505 9.74303 1.35405 9.81003C1.32305 9.79603 1.29505 9.77003 1.25505 9.78653C1.31705 9.90803 1.24105 10.0765 1.04705 10.1155C1.1129 10.0439 1.15041 9.95079 1.15255 9.85353C1.15255 9.56503 1.07205 9.51553 1.07205 9.31453C1.07205 9.23003 1.11555 9.13903 1.20105 9.07753V9.08053C1.14605 9.06586 1.10855 9.03903 1.08855 9.00003C1.21805 8.96353 1.40605 8.96403 1.50705 9.00403C1.5526 9.01063 1.59612 9.02729 1.63443 9.0528C1.67274 9.07832 1.70489 9.11204 1.72855 9.15153C1.75276 9.20775 1.76525 9.26832 1.76525 9.32953C1.76525 9.39074 1.75276 9.45131 1.72855 9.50753C1.65155 9.66853 1.28855 10.438 1.17555 10.6805C1.15115 10.732 1.13802 10.7881 1.13705 10.845C1.13705 10.993 1.27255 11.0445 1.34955 11.0445C1.44205 11.0445 1.53605 10.974 1.53605 10.8865C1.53605 10.832 1.50555 10.798 1.46255 10.798C1.35805 10.798 1.36455 10.8865 1.38505 10.942C1.32055 10.913 1.28255 10.8605 1.29305 10.806C1.2523 10.8002 1.2152 10.7793 1.18905 10.7475C1.20085 10.7306 1.21635 10.7167 1.23438 10.7067C1.25241 10.6968 1.27247 10.691 1.29305 10.69C1.27205 10.605 1.32905 10.5695 1.38505 10.5495C1.36755 10.612 1.35605 10.684 1.46255 10.684C1.54005 10.684 1.60105 10.697 1.63655 10.748L1.64555 10.415C1.64955 10.316 1.51155 10.3185 1.42405 10.348C1.45705 10.2335 1.52505 10.1715 1.68205 10.187C1.65797 10.1775 1.63744 10.1608 1.62329 10.1391C1.60914 10.1174 1.60207 10.0919 1.60305 10.066C1.60305 9.97253 1.67855 9.86903 1.72855 9.83803L1.75305 10.8115Z" fill="#FFCC4D"/>
<path d="M1.70349 10.8116C1.70349 11.0611 1.92749 11.1891 2.10349 11.1891C2.34049 11.1891 2.46699 11.0476 2.46699 10.8621C2.4682 10.767 2.44477 10.6733 2.39899 10.5901L1.85549 9.46105C1.83616 9.41368 1.82746 9.36265 1.82999 9.31155C1.82999 9.21005 1.92849 9.12755 2.03149 9.12505C2.12499 9.12255 2.22749 9.21255 2.22749 9.31455C2.22749 9.43855 2.16349 9.49405 2.09699 9.49405C2.01549 9.49405 1.98299 9.46055 1.98299 9.40305C1.98299 9.36355 2.00249 9.34655 2.02999 9.34655C2.09999 9.34655 2.08049 9.44055 2.08049 9.44055C2.08974 9.4386 2.09845 9.43465 2.10602 9.42898C2.11359 9.4233 2.11983 9.41605 2.12431 9.40772C2.12878 9.39939 2.13138 9.39018 2.13193 9.38074C2.13248 9.3713 2.13097 9.36185 2.12749 9.35305C2.15383 9.34766 2.17761 9.33357 2.19499 9.31305C2.17694 9.29393 2.15332 9.28098 2.12749 9.27605C2.14399 9.22155 2.12199 9.19555 2.07499 9.18405C2.08449 9.20505 2.08449 9.22405 2.08149 9.24205C2.00699 9.22105 1.89299 9.25455 1.89299 9.38305C1.89299 9.51055 1.98149 9.61755 2.14799 9.59155C2.10799 9.61105 2.08849 9.64905 2.08449 9.69255C2.11449 9.68105 2.14799 9.67905 2.14799 9.67905C2.12849 9.71305 2.10149 9.74305 2.10249 9.81005C2.13349 9.79605 2.16199 9.77005 2.20149 9.78655C2.13949 9.90805 2.21549 10.0766 2.40949 10.1156C2.34363 10.044 2.30612 9.95081 2.30399 9.85355C2.30399 9.56505 2.38499 9.51555 2.38499 9.31455C2.38349 9.26772 2.37104 9.22189 2.34864 9.18073C2.32624 9.13958 2.2945 9.10424 2.25599 9.07755V9.08055C2.27956 9.07584 2.30186 9.06619 2.32142 9.05223C2.34099 9.03826 2.35737 9.02031 2.36949 8.99955C2.23999 8.96305 2.05149 8.96355 1.95099 9.00355C1.90543 9.01015 1.86192 9.02681 1.8236 9.05233C1.78529 9.07784 1.75314 9.11157 1.72949 9.15105C1.70527 9.20727 1.69279 9.26784 1.69279 9.32905C1.69279 9.39027 1.70527 9.45083 1.72949 9.50705C1.80649 9.66805 2.16949 10.4376 2.28249 10.6801C2.30649 10.7311 2.32099 10.7851 2.32099 10.8446C2.32099 10.9926 2.18549 11.0441 2.10849 11.0441C2.01599 11.0441 1.92199 10.9736 1.92199 10.8861C1.92199 10.8316 1.95249 10.7976 1.99549 10.7976C2.09999 10.7976 2.09349 10.8861 2.07249 10.9416C2.13699 10.9126 2.17499 10.8601 2.16449 10.8056C2.2054 10.8002 2.24266 10.7792 2.26849 10.7471C2.25669 10.7302 2.24118 10.7162 2.22315 10.7062C2.20513 10.6963 2.18506 10.6906 2.16449 10.6896C2.18549 10.6046 2.12849 10.5691 2.07249 10.5491C2.08999 10.6116 2.10149 10.6836 1.99549 10.6836C1.91799 10.6836 1.85699 10.6966 1.82149 10.7476C1.81899 10.6806 1.81249 10.4146 1.81249 10.4146C1.80849 10.3156 1.94599 10.3181 2.03349 10.3476C1.99999 10.2331 1.93249 10.1711 1.77499 10.1866C1.79906 10.177 1.81959 10.1603 1.83374 10.1386C1.84789 10.117 1.85497 10.0914 1.85399 10.0656C1.85399 9.97205 1.77799 9.86855 1.72849 9.83755L1.70349 10.8116ZM1.72849 3.73955C1.72849 3.73955 1.84699 3.64005 1.88699 3.68955C1.95149 3.77005 1.68849 4.16955 1.68849 4.31055C1.68849 4.54155 1.84299 4.60405 2.03299 4.63705C2.16099 4.65955 2.36899 4.62805 2.36899 4.62805C2.32899 4.57555 2.30399 4.56005 2.23799 4.55605C2.28346 4.53239 2.32141 4.49649 2.34756 4.45241C2.37371 4.40832 2.38702 4.3578 2.38599 4.30655C2.38599 4.10755 2.30399 4.02555 2.30399 3.80155C2.30399 3.67705 2.40599 3.51855 2.40599 3.51855C2.22599 3.53705 2.13599 3.70355 2.18699 3.83705C2.17329 3.83972 2.15914 3.83897 2.1458 3.83487C2.13246 3.83077 2.12033 3.82345 2.11049 3.81355C2.09749 3.85055 2.11849 3.89355 2.14599 3.93055C2.12349 3.94255 2.10699 3.93505 2.07149 3.92755C2.07499 3.96605 2.09749 4.00605 2.15349 4.04405C1.99099 4.00205 1.89149 4.11505 1.89149 4.23355C1.89149 4.32305 1.95399 4.38655 2.01549 4.38655C2.03549 4.38655 2.06449 4.37855 2.08099 4.36605C2.09249 4.39055 2.08649 4.42355 2.07449 4.44805C2.11949 4.43655 2.14749 4.40955 2.12749 4.35405C2.14269 4.35352 2.15763 4.34997 2.17144 4.34362C2.18526 4.33727 2.19768 4.32824 2.20799 4.31705C2.19821 4.30514 2.18581 4.29565 2.17176 4.28932C2.15771 4.28298 2.14239 4.27999 2.12699 4.28055C2.15199 4.22855 2.12399 4.19955 2.08349 4.17655C2.08349 4.17655 2.10949 4.28055 2.04299 4.28055C2.01299 4.28055 1.98599 4.27055 1.98599 4.22705C1.98599 4.18905 2.01949 4.13605 2.09649 4.13955C2.17349 4.14255 2.23599 4.19255 2.23599 4.31605C2.23599 4.42955 2.14449 4.48555 2.02399 4.48955C1.91549 4.49255 1.83349 4.43355 1.83349 4.32155C1.83349 4.17205 2.04949 3.83205 2.04949 3.69855C2.04949 3.59855 1.95999 3.54255 1.87199 3.54255C1.75799 3.54255 1.66199 3.65555 1.66199 3.65555L1.72849 3.73955Z" fill="#FFCC4D"/>
<path d="M1.72854 3.73955C1.72854 3.73955 1.61004 3.64005 1.57004 3.68955C1.50504 3.77055 1.76854 4.17005 1.76854 4.31105C1.76854 4.54205 1.61404 4.60455 1.42404 4.63755C1.29604 4.65955 1.08854 4.62805 1.08854 4.62805C1.12754 4.57555 1.15304 4.56005 1.21904 4.55605C1.17347 4.53246 1.13542 4.49659 1.10918 4.4525C1.08293 4.40841 1.06955 4.35786 1.07054 4.30655C1.07054 4.10755 1.15254 4.02555 1.15254 3.80155C1.15254 3.67705 1.05054 3.51855 1.05054 3.51855C1.23054 3.53705 1.32054 3.70355 1.26954 3.83705C1.28332 3.83938 1.29745 3.83847 1.31081 3.83439C1.32418 3.83032 1.33641 3.82318 1.34654 3.81355C1.35954 3.85055 1.33904 3.89355 1.31104 3.93055C1.33304 3.94255 1.34954 3.93505 1.38554 3.92755C1.38204 3.96605 1.35904 4.00605 1.30354 4.04405C1.46554 4.00205 1.56504 4.11505 1.56504 4.23355C1.56504 4.32305 1.50254 4.38655 1.44104 4.38655C1.41772 4.38597 1.39503 4.37887 1.37554 4.36605C1.36454 4.39105 1.37054 4.42355 1.38204 4.44805C1.33754 4.43655 1.30954 4.40955 1.32954 4.35455C1.31434 4.35402 1.2994 4.35047 1.28558 4.34412C1.27176 4.33777 1.25934 4.32874 1.24904 4.31755C1.25871 4.30562 1.27101 4.29607 1.28497 4.28965C1.29893 4.28324 1.31418 4.28012 1.32954 4.28055C1.30454 4.22855 1.33254 4.19955 1.37304 4.17655C1.37304 4.17655 1.34704 4.28055 1.41354 4.28055C1.44354 4.28055 1.47054 4.27055 1.47054 4.22705C1.47054 4.18905 1.43704 4.13605 1.36004 4.13955C1.28254 4.14255 1.22004 4.19255 1.22004 4.31555C1.22004 4.42905 1.31154 4.48505 1.43204 4.48905C1.54104 4.49205 1.62304 4.43355 1.62304 4.32105C1.62304 4.17155 1.40704 3.83155 1.40704 3.69805C1.40704 3.59805 1.49654 3.54205 1.58454 3.54205C1.69854 3.54205 1.79454 3.65505 1.79454 3.65505L1.72854 3.73955ZM1.70354 6.43955C1.70354 6.68905 1.92754 6.81755 2.10354 6.81755C2.34054 6.81755 2.46704 6.67555 2.46704 6.48955C2.46704 6.38455 2.44754 6.31855 2.39904 6.21755L1.85554 5.08855C1.83646 5.0413 1.82792 4.99045 1.83054 4.93955C1.83054 4.83855 1.92904 4.75555 2.03204 4.75305C2.12554 4.75105 2.22804 4.84055 2.22804 4.94305C2.22804 5.06755 2.16404 5.12255 2.09754 5.12255C2.01604 5.12255 1.98354 5.08905 1.98354 5.03155C1.98354 4.99155 2.00304 4.97455 2.03054 4.97455C2.10054 4.97455 2.08104 5.06855 2.08104 5.06855C2.09029 5.0666 2.099 5.06265 2.10657 5.05698C2.11414 5.0513 2.12038 5.04405 2.12485 5.03572C2.12933 5.02739 2.13193 5.01818 2.13248 5.00874C2.13303 4.9993 2.13152 4.98985 2.12804 4.98105C2.1542 4.97556 2.17778 4.96148 2.19504 4.94105C2.17665 4.9221 2.15294 4.9092 2.12704 4.90405C2.14354 4.85005 2.12154 4.82405 2.07454 4.81255C2.08404 4.83355 2.08404 4.85255 2.08104 4.87055C2.00654 4.84955 1.89254 4.88305 1.89254 5.01155C1.89254 5.13905 1.98104 5.24655 2.14754 5.22005C2.10754 5.23905 2.08804 5.27755 2.08404 5.32055C2.10455 5.31348 2.1259 5.30911 2.14754 5.30755C2.12804 5.34155 2.10104 5.37105 2.10204 5.43855C2.13304 5.42455 2.16154 5.39855 2.20104 5.41505C2.13904 5.53705 2.21504 5.70455 2.40904 5.74455C2.34307 5.67283 2.30555 5.57948 2.30354 5.48205C2.30354 5.19305 2.38454 5.14405 2.38454 4.94305C2.38304 4.89622 2.37059 4.85039 2.34819 4.80923C2.32579 4.76808 2.29405 4.73274 2.25554 4.70605V4.70955C2.27904 4.70449 2.30125 4.69465 2.32077 4.68062C2.3403 4.6666 2.35673 4.64871 2.36904 4.62805C2.23904 4.59205 2.05054 4.59255 1.94954 4.63255C1.90407 4.63922 1.86066 4.65592 1.82243 4.68143C1.78421 4.70694 1.75214 4.74063 1.72854 4.78005C1.70432 4.83627 1.69184 4.89684 1.69184 4.95805C1.69184 5.01927 1.70432 5.07984 1.72854 5.13605C1.80554 5.29705 2.16854 6.06655 2.28154 6.30855C2.30594 6.36002 2.31906 6.41611 2.32004 6.47305C2.32004 6.62155 2.18454 6.67305 2.10754 6.67305C2.01504 6.67305 1.92104 6.60255 1.92104 6.51505C1.92104 6.45955 1.95154 6.42555 1.99454 6.42555C2.09904 6.42555 2.09254 6.51405 2.07154 6.57005C2.13604 6.54105 2.17404 6.48905 2.16354 6.43405C2.20436 6.42808 2.24147 6.40703 2.26754 6.37505C2.24204 6.34305 2.21104 6.31855 2.16354 6.31805C2.18454 6.23305 2.12754 6.19655 2.07154 6.17655C2.08904 6.23905 2.10054 6.31155 1.99454 6.31155C1.91704 6.31155 1.85604 6.32455 1.82054 6.37505C1.81804 6.30805 1.81154 6.04205 1.81154 6.04205C1.80754 5.94255 1.94504 5.94555 2.03254 5.97505C2.00004 5.86105 1.93254 5.79905 1.77504 5.81455C1.79911 5.80505 1.81964 5.7883 1.83379 5.76663C1.84794 5.74495 1.85502 5.71942 1.85404 5.69355C1.85404 5.60005 1.77804 5.49605 1.72854 5.46555L1.70354 6.43955Z" fill="#FFCC4D"/>
</svg>
