<svg width="26" height="26" viewBox="0 0 26 26" fill="none" xmlns="http://www.w3.org/2000/svg">
<path d="M13.0002 8.04167C12.4366 8.04167 11.8961 8.26555 11.4976 8.66406C11.099 9.06258 10.8752 9.60308 10.8752 10.1667V10.3183C10.8752 10.5061 10.8005 10.6863 10.6677 10.8191C10.5349 10.952 10.3547 11.0266 10.1668 11.0266C9.97897 11.0266 9.7988 10.952 9.66596 10.8191C9.53312 10.6863 9.4585 10.5061 9.4585 10.3183V10.1667C9.4585 9.22736 9.83163 8.32652 10.4958 7.66233C11.16 6.99814 12.0609 6.625 13.0002 6.625H13.1645C13.8543 6.62521 14.5275 6.83663 15.0935 7.23082C15.6596 7.62502 16.0913 8.18308 16.3308 8.82998C16.5702 9.47687 16.6059 10.1816 16.4329 10.8493C16.2599 11.5171 15.8866 12.1158 15.3632 12.5651L14.2709 13.5015C14.0948 13.6529 13.9534 13.8404 13.8563 14.0514C13.7592 14.2624 13.7088 14.4918 13.7085 14.7241V15.4792C13.7085 15.667 13.6339 15.8472 13.501 15.98C13.3682 16.1129 13.188 16.1875 13.0002 16.1875C12.8123 16.1875 12.6321 16.1129 12.4993 15.98C12.3665 15.8472 12.2918 15.667 12.2918 15.4792V14.7241C12.2918 13.8401 12.6786 13.0014 13.3487 12.4262L14.4395 11.4913C14.7437 11.2306 14.9608 10.8831 15.0615 10.4953C15.1622 10.1076 15.1418 9.69834 15.0029 9.3226C14.864 8.94685 14.6134 8.62266 14.2847 8.39365C13.956 8.16464 13.5651 8.0418 13.1645 8.04167H13.0002ZM13.0002 19.375C13.282 19.375 13.5522 19.2631 13.7515 19.0638C13.9507 18.8645 14.0627 18.5943 14.0627 18.3125C14.0627 18.0307 13.9507 17.7605 13.7515 17.5612C13.5522 17.3619 13.282 17.25 13.0002 17.25C12.7184 17.25 12.4481 17.3619 12.2489 17.5612C12.0496 17.7605 11.9377 18.0307 11.9377 18.3125C11.9377 18.5943 12.0496 18.8645 12.2489 19.0638C12.4481 19.2631 12.7184 19.375 13.0002 19.375Z" fill="#818181"/>
<path d="M0.958496 13C0.958496 9.80639 2.22717 6.74355 4.48542 4.4853C6.74367 2.22705 9.80651 0.958374 13.0002 0.958374C16.1938 0.958374 19.2567 2.22705 21.5149 4.4853C23.7732 6.74355 25.0418 9.80639 25.0418 13C25.0418 16.1937 23.7732 19.2565 21.5149 21.5148C19.2567 23.773 16.1938 25.0417 13.0002 25.0417C9.80651 25.0417 6.74367 23.773 4.48542 21.5148C2.22717 19.2565 0.958496 16.1937 0.958496 13ZM13.0002 2.37504C10.1822 2.37504 7.47973 3.49446 5.48715 5.48703C3.49458 7.47961 2.37516 10.1821 2.37516 13C2.37516 15.818 3.49458 18.5205 5.48715 20.5131C7.47973 22.5056 10.1822 23.625 13.0002 23.625C15.8181 23.625 18.5206 22.5056 20.5132 20.5131C22.5057 18.5205 23.6252 15.818 23.6252 13C23.6252 10.1821 22.5057 7.47961 20.5132 5.48703C18.5206 3.49446 15.8181 2.37504 13.0002 2.37504Z" fill="#818181"/>
</svg>
