<svg width="32" height="25" viewBox="0 0 32 25" fill="none" xmlns="http://www.w3.org/2000/svg">
<path d="M3.27379 9.21429L5.72334 22.6266C5.79331 23.0105 6.01041 23.3592 6.33597 23.6107C6.66153 23.8623 7.07441 24.0002 7.50106 24H24.2624C24.6888 23.9998 25.1012 23.8617 25.4264 23.6102C25.7516 23.3587 25.9684 23.0102 26.0384 22.6266L28.4897 9.21429M3.27379 9.21429H8.6772M3.27379 9.21429H1.47266M28.4897 9.21429H23.0863M28.4897 9.21429H30.2908M8.6772 9.21429L10.4783 1M8.6772 9.21429H23.0863M23.0863 9.21429L21.2852 1M10.4783 15.7857V17.4286M21.2852 15.7857V17.4286M15.8817 15.7857V17.4286" stroke="#AC2525" stroke-width="2" stroke-linecap="round" stroke-linejoin="round"/>
</svg>
