<svg id="Layer_1" data-name="Layer 1" xmlns="http://www.w3.org/2000/svg" viewBox="0 0 323.57 96.07"><defs><style>.cls-1{fill:none;}.cls-2{fill:#fff;}.cls-3{fill:#e1251b;}</style></defs><rect class="cls-1" width="323.57" height="96.07"/><path class="cls-2" d="M229.24,414.15h2.31c0-.51-.09-1.93-1.46-1.93a1.26,1.26,0,0,0-1.38,1.32h-1.13c0-.46.22-2,2.5-2,1.26,0,2.7.32,2.7,3.15,0,2.62-1.51,3.06-2.69,3.06-2.36,0-2.55-1.61-2.55-2.22h1.13a1.37,1.37,0,0,0,1.42,1.52c1.31,0,1.46-1.19,1.46-2.16h-2.31Z" transform="translate(-145.59 -343.9)"/><path class="cls-2" d="M240.7,411.74H242l-2.52,2.67,2.65,3.08h-1.3l-2.2-2.61v2.61h-1.18v-5.75h1.18V414Z" transform="translate(-145.59 -343.9)"/><path class="cls-2" d="M251.22,415.44a2.24,2.24,0,0,1-2.47,2.28c-.67,0-2.74-.09-2.74-3.15,0-1,.26-3.06,2.69-3.06,1.66,0,2.48,1,2.48,2h-1.13a1.3,1.3,0,0,0-1.34-1.32c-.79,0-1.48.53-1.48,2.35,0,2.18,1.05,2.45,1.55,2.45s1.28-.33,1.31-1.58Z" transform="translate(-145.59 -343.9)"/><path class="cls-2" d="M257,417.49h-1.17v-5.75h4.83v5.75h-1.17v-5.05H257Z" transform="translate(-145.59 -343.9)"/><path class="cls-2" d="M270.63,415.83a2.18,2.18,0,0,1-2.47,1.89,2.76,2.76,0,0,1-2.85-3.08c0-1.71.69-3.13,2.78-3.13,1.23,0,2.44.48,2.58,2.84,0,.17,0,.32,0,.49h-4.14c0,.83.34,2.18,1.59,2.18a1.31,1.31,0,0,0,1.37-1.19Zm-1.17-1.69c0-1.79-.94-1.92-1.37-1.92-1.42,0-1.56,1.41-1.55,1.92Z" transform="translate(-145.59 -343.9)"/><path class="cls-2" d="M276.47,411.74v.59h0a1.82,1.82,0,0,1,1.66-.82c1.41,0,2.55,1,2.55,3.11,0,1.88-.92,3.1-2.54,3.1a2,2,0,0,1-1.64-.71v2.58h-1.17v-7.85ZM278,417c.81,0,1.47-.56,1.47-2.4,0-2.05-1-2.4-1.53-2.4s-1.48.51-1.48,2.42C276.47,416.82,277.64,417,278,417Z" transform="translate(-145.59 -343.9)"/><path class="cls-2" d="M284.73,412.44v-.7h4.91v.7h-1.87v5.05H286.6v-5.05Z" transform="translate(-145.59 -343.9)"/><path class="cls-2" d="M295.23,411.74V414h1.3c.53,0,2.22,0,2.22,1.75,0,.66-.28,1.72-2.09,1.72h-2.6v-5.75Zm0,5.05h1c.56,0,1.28-.11,1.28-1.09s-.93-1-1.24-1h-1Zm5.12-5.05v5.75h-1.17v-5.75Z" transform="translate(-145.59 -343.9)"/><path class="cls-2" d="M313.66,414.15H316c0-.51-.1-1.93-1.47-1.93a1.26,1.26,0,0,0-1.38,1.32H312c0-.46.23-2,2.5-2,1.27,0,2.7.32,2.7,3.15,0,2.62-1.5,3.06-2.69,3.06-2.35,0-2.55-1.61-2.55-2.22h1.13a1.38,1.38,0,0,0,1.42,1.52c1.31,0,1.47-1.19,1.47-2.16h-2.32Z" transform="translate(-145.59 -343.9)"/><path class="cls-2" d="M325.13,411.74h1.3l-2.53,2.67,2.65,3.08h-1.3l-2.2-2.61v2.61h-1.17v-5.75h1.17V414Z" transform="translate(-145.59 -343.9)"/><path class="cls-2" d="M335.65,415.44a2.24,2.24,0,0,1-2.47,2.28c-.67,0-2.75-.09-2.75-3.15,0-1,.26-3.06,2.69-3.06,1.66,0,2.48,1,2.48,2h-1.13a1.28,1.28,0,0,0-1.33-1.32c-.8,0-1.48.53-1.48,2.35,0,2.18,1,2.45,1.55,2.45s1.28-.33,1.31-1.58Z" transform="translate(-145.59 -343.9)"/><path class="cls-2" d="M341.41,417.49h-1.17v-5.75h4.82v5.75h-1.17v-5.05h-2.48Z" transform="translate(-145.59 -343.9)"/><path class="cls-2" d="M352.5,411.51c2.54,0,2.76,2.27,2.76,3.1s-.22,3.11-2.76,3.11-2.76-2.3-2.76-3.11S350,411.51,352.5,411.51Zm0,5.51c1,0,1.53-.92,1.53-2.41,0-1.1-.33-2.39-1.53-2.39s-1.54,1.29-1.54,2.39C351,416.1,351.52,417,352.5,417Z" transform="translate(-145.59 -343.9)"/><path class="cls-2" d="M361.05,411.74v.59h0a1.81,1.81,0,0,1,1.66-.82c1.41,0,2.55,1,2.55,3.11,0,1.88-.92,3.1-2.54,3.1a2,2,0,0,1-1.64-.71v2.58h-1.18v-7.85Zm1.53,5.28c.81,0,1.48-.56,1.48-2.4,0-2.05-1-2.4-1.53-2.4s-1.48.51-1.48,2.42C361.05,416.82,362.22,417,362.58,417Z" transform="translate(-145.59 -343.9)"/><path class="cls-2" d="M369.31,412.44v-.7h4.91v.7h-1.87v5.05h-1.17v-5.05Z" transform="translate(-145.59 -343.9)"/><path class="cls-2" d="M378.33,413.44c0-.42.12-1.93,2.42-1.93,1.57,0,2.26.67,2.26,1.94v2.78c0,.5.05.56.33.56h.18v.71a2.76,2.76,0,0,1-.54.05.88.88,0,0,1-1-.53,2.47,2.47,0,0,1-1.85.71c-1.58,0-2-.88-2-1.73,0-1.46,1.37-1.68,2.46-1.79s1.23-.12,1.23-.77c0-1.08-.58-1.21-1.09-1.21-1.2,0-1.29.83-1.27,1.22Zm3.51,1.26c-1.5.33-2.47,0-2.47,1.31,0,.36.05,1,.94,1,1.22,0,1.53-.78,1.53-2Z" transform="translate(-145.59 -343.9)"/><path class="cls-2" d="M298.66,376.37a7.81,7.81,0,0,0-3.44-4.76,13.43,13.43,0,0,0-7.23-1.68,18.43,18.43,0,0,0-7.85,1.58,14.28,14.28,0,0,0-5.54,4.54,19.48,19.48,0,0,0-3.17,7.28,17.59,17.59,0,0,0-.46,5.58,8.86,8.86,0,0,0,1.54,4.34,8.41,8.41,0,0,0,3.67,2.79,15,15,0,0,0,5.74,1,19.28,19.28,0,0,0,6.18-.94,14,14,0,0,0,4.82-2.71,16.25,16.25,0,0,0,3.46-4.26,20.51,20.51,0,0,0,2.12-5.56A15.16,15.16,0,0,0,298.66,376.37Zm-15.82,15.8a4.76,4.76,0,0,1-3.17-.95,4.27,4.27,0,0,1-1.31-2.84,14.64,14.64,0,0,1,.43-4.83,17.83,17.83,0,0,1,1.8-4.87,8.22,8.22,0,0,1,2.75-3,7,7,0,0,1,3.75-1c2.05,0,3.4.7,4,2.09s.63,3.65,0,6.56a18.61,18.61,0,0,1-1.78,4.91,8,8,0,0,1-2.72,2.93A7.13,7.13,0,0,1,282.84,392.17Z" transform="translate(-145.59 -343.9)"/><path class="cls-2" d="M360.73,370.33H337.84l-1.11,4.84h8.9l-5,21.85h6.13l5-21.85h4a4.89,4.89,0,0,0,4.76-3.79Z" transform="translate(-145.59 -343.9)"/><polygon class="cls-2" points="232.41 41.68 236.98 36.88 225.75 36.88 227.06 31.2 239.2 31.2 240.29 26.44 222.02 26.44 216.01 52.6 215.89 53.12 231.79 53.12 237.71 48.32 223.12 48.32 224.65 41.68 232.41 41.68"/><path class="cls-2" d="M445.37,370.33a6,6,0,0,0-5.79,4.53l-3.09,12.46a9.18,9.18,0,0,1-1.18,2.9,3.88,3.88,0,0,1-1.81,1.51,7,7,0,0,1-2.6.44,3.8,3.8,0,0,1-2.95-.93c-.54-.63-.58-1.87-.13-3.7l4.14-16.7.13-.51h-2a6,6,0,0,0-5.8,4.54L421,388.08c-.69,2.8-.28,5,1.24,6.58s4.05,2.36,7.57,2.36a17.54,17.54,0,0,0,6.32-1,11.15,11.15,0,0,0,4.41-3,10.91,10.91,0,0,0,2.38-4.62l4.34-17.5.13-.51Z" transform="translate(-145.59 -343.9)"/><path class="cls-2" d="M325.71,370.34H308.13l-6,26.17L302,397h1.39a5.83,5.83,0,0,0,5.68-4.53l3.74-16.26h.11l.63,0h10.79a2,2,0,0,1,1.72.78,3.26,3.26,0,0,1,.08,2.77c-.46,1.36-1.56,2.73-3,2.73H312.59l.41.64c2.76,4.3,8.14,12.6,8.73,13.29l.12.14H322c1.32,0,3.39,0,4.89,0h2.21l-.51-.67c-1.25-1.67-3.61-4.86-5.5-7.66,4.09-.47,7-3.36,8.32-8.47.58-2.15.65-5.18-.87-7.25A5.64,5.64,0,0,0,325.71,370.34Z" transform="translate(-145.59 -343.9)"/><path class="cls-2" d="M411.38,370.34H393.81l-6,26.17-.12.52h1.53a5.65,5.65,0,0,0,5.51-4.39l3.77-16.4h.11l.63,0H410a2,2,0,0,1,1.72.78,3.22,3.22,0,0,1,.08,2.77c-.45,1.36-1.56,2.73-3,2.73H398.26l.42.64c2.76,4.3,8.13,12.6,8.72,13.29l.12.14h.19c1.32,0,3.39,0,4.89,0h2.21l-.51-.67c-1.25-1.67-3.6-4.86-5.5-7.66,4.1-.47,7-3.36,8.33-8.47.57-2.15.64-5.18-.87-7.25A5.67,5.67,0,0,0,411.38,370.34Z" transform="translate(-145.59 -343.9)"/><path class="cls-3" d="M219.84,396.84c-9-15.36-22-21.52-31.73-24.36-9.23-2.18-14.11-2.09-14.79-2.1,0,.43-5.53,24.5-6,26.39a1.51,1.51,0,0,0,.28.05H186l6.05-4.73h-17.4c.21-.91,1-4.41,1.25-5.45.21-.86.47-1,1.18-1l6.06,0a2.39,2.39,0,0,0,1.64-.74l5-4.06H177.3c.2-.82,1.13-4.74,1.25-5.48s.31-.81.85-.8c6.2-.15,18.83,2.64,26,12.19l-12.8,10,.87,0c2,0,3.83.08,6,.05,2.31,0,3.3-.33,5.37-1.89,1.33-1.11,4.14-3.21,4.14-3.21s1.46,2.55,2.08,3.83a1.83,1.83,0,0,0,1.9,1.28Z" transform="translate(-145.59 -343.9)"/><path class="cls-2" d="M218.8,382.3c5.34-4,10.27-7.87,15.69-11.95a3.55,3.55,0,0,0-.43-.06c-3.14,0-4.15,0-7.29,0a5.92,5.92,0,0,0-4.19,1.54c-3.38,2.54-2.36,1.74-8.62,6.38-3.14-1.94-21.48-10.64-40.35-9.44,5.54-.09,16.43,1.12,28.63,6.84a68.34,68.34,0,0,1,13.38,8.76,67.65,67.65,0,0,1,10.73,12.42H229l.35,0h2.83C228.22,391.06,224.13,386.18,218.8,382.3Z" transform="translate(-145.59 -343.9)"/><path class="cls-2" d="M266.33,372.69a5.64,5.64,0,0,0-4.87-2.19H243.29l-6.18,25.85-.11.52h1.38a5.82,5.82,0,0,0,5.68-4.53l1.13-4,13.69.07c4.09-.47,7-3.36,8.32-8.47C267.78,377.79,267.85,374.76,266.33,372.69Zm-4.44,7.22c-.46,1.36-1.57,2.73-3,2.73H246.79l1.77-6.26h.11l.63,0h10.79a2,2,0,0,1,1.72.78A3.26,3.26,0,0,1,261.89,379.91Z" transform="translate(-145.59 -343.9)"/></svg>