<svg width="21" height="21" viewBox="0 0 21 21" fill="none" xmlns="http://www.w3.org/2000/svg">
<g clip-path="url(#clip0_2441_533)">
<path d="M10.5 4.375C10.5 4.14294 10.5922 3.92038 10.7563 3.75628C10.9204 3.59219 11.1429 3.5 11.375 3.5H18.375C18.6071 3.5 18.8296 3.59219 18.9937 3.75628C19.1578 3.92038 19.25 4.14294 19.25 4.375C19.25 4.60706 19.1578 4.82962 18.9937 4.99372C18.8296 5.15781 18.6071 5.25 18.375 5.25H11.375C11.1429 5.25 10.9204 5.15781 10.7563 4.99372C10.5922 4.82962 10.5 4.60706 10.5 4.375Z" fill="#1C274C"/>
<path d="M10.5 10.5C10.5 10.2679 10.5922 10.0454 10.7563 9.88128C10.9204 9.71719 11.1429 9.625 11.375 9.625H18.375C18.6071 9.625 18.8296 9.71719 18.9937 9.88128C19.1578 10.0454 19.25 10.2679 19.25 10.5C19.25 10.7321 19.1578 10.9546 18.9937 11.1187C18.8296 11.2828 18.6071 11.375 18.375 11.375H11.375C11.1429 11.375 10.9204 11.2828 10.7563 11.1187C10.5922 10.9546 10.5 10.7321 10.5 10.5Z" fill="#1C274C"/>
<path d="M10.5 16.625C10.5 16.3929 10.5922 16.1704 10.7563 16.0063C10.9204 15.8422 11.1429 15.75 11.375 15.75H18.375C18.6071 15.75 18.8296 15.8422 18.9937 16.0063C19.1578 16.1704 19.25 16.3929 19.25 16.625C19.25 16.8571 19.1578 17.0796 18.9937 17.2437C18.8296 17.4078 18.6071 17.5 18.375 17.5H11.375C11.1429 17.5 10.9204 17.4078 10.7563 17.2437C10.5922 17.0796 10.5 16.8571 10.5 16.625Z" fill="#1C274C"/>
<path d="M5.25001 0.87499C5.0997 0.881441 4.95326 0.924709 4.82358 1.00099C4.6939 1.07728 4.58493 1.18424 4.50626 1.31249L1.83751 5.68749C1.77164 5.82393 1.73743 5.97348 1.73743 6.12499C1.73743 6.2765 1.77164 6.42605 1.83751 6.56249C1.90957 6.6965 2.01703 6.80816 2.14817 6.8853C2.27932 6.96245 2.42912 7.00212 2.58126 6.99999H7.87501C8.02533 6.99354 8.17176 6.95027 8.30144 6.87399C8.43113 6.7977 8.54009 6.69074 8.61876 6.56249C8.70529 6.43299 8.75147 6.28074 8.75147 6.12499C8.75147 5.96924 8.70529 5.81699 8.61876 5.68749L5.99376 1.31249C5.9217 1.17848 5.81425 1.06682 5.6831 0.989676C5.55196 0.912531 5.40215 0.872861 5.25001 0.87499Z" fill="#1C274C"/>
<path d="M5.25 13.125C4.73083 13.125 4.22331 12.971 3.79163 12.6826C3.35995 12.3942 3.0235 11.9842 2.82482 11.5045C2.62614 11.0249 2.57415 10.4971 2.67544 9.98789C2.77673 9.47869 3.02673 9.01096 3.39385 8.64385C3.76096 8.27673 4.22869 8.02673 4.73789 7.92544C5.24709 7.82415 5.77489 7.87614 6.25455 8.07482C6.7342 8.2735 7.14417 8.60995 7.43261 9.04163C7.72105 9.47331 7.875 9.98083 7.875 10.5C7.875 11.1962 7.59844 11.8639 7.10616 12.3562C6.61387 12.8484 5.94619 13.125 5.25 13.125Z" fill="#1C274C"/>
<path d="M7 19.25H3.5C3.26794 19.25 3.04538 19.1578 2.88128 18.9937C2.71719 18.8296 2.625 18.6071 2.625 18.375V14.875C2.625 14.6429 2.71719 14.4204 2.88128 14.2563C3.04538 14.0922 3.26794 14 3.5 14H7C7.23206 14 7.45462 14.0922 7.61872 14.2563C7.78281 14.4204 7.875 14.6429 7.875 14.875V18.375C7.875 18.6071 7.78281 18.8296 7.61872 18.9937C7.45462 19.1578 7.23206 19.25 7 19.25Z" fill="#1C274C"/>
</g>
<defs>
<clipPath id="clip0_2441_533">
<rect width="21" height="21" fill="white"/>
</clipPath>
</defs>
</svg>
