<svg width="14" height="16" viewBox="0 0 14 16" fill="none" xmlns="http://www.w3.org/2000/svg">
<path d="M7.82192 3.83414C8.09056 3.5 8.03664 3.01205 7.70144 2.74425C7.36634 2.47646 6.87697 2.53023 6.60843 2.86437L7.82192 3.83414ZM1.10006 10.9568L1.689 11.4631C1.69507 11.456 1.70102 11.4489 1.70683 11.4417L1.10006 10.9568ZM0.922763 11.3889L0.146668 11.3384L0.145984 11.3531L0.922763 11.3889ZM0.77761 14.514L0.000830188 14.4782C-0.000953129 14.5166 0.000135523 14.5552 0.00410651 14.5935L0.77761 14.514ZM1.59358 15.2242L1.619 15.9992C1.67086 15.9974 1.72242 15.9906 1.77291 15.9786L1.59358 15.2242ZM4.70402 14.4892L4.88339 15.2437L4.89541 15.2407L4.70402 14.4892ZM5.10319 14.237L5.70309 14.7304L5.70983 14.722L5.10319 14.237ZM11.9722 6.93565C12.2408 6.60154 12.187 6.1136 11.852 5.8457C11.517 5.57781 11.0275 5.63147 10.7589 5.96556L11.9722 6.93565ZM6.61165 2.86416C6.34301 3.1982 6.39672 3.68617 6.73181 3.95409C7.06681 4.22199 7.55618 4.16838 7.82493 3.83434L6.61165 2.86416ZM8.86474 1.30238L9.47138 1.78747C9.48154 1.77477 9.49139 1.76174 9.50083 1.74842L8.86474 1.30238ZM10.5537 0.97157L11.0512 0.375662C11.0264 0.35511 11.0004 0.33612 10.9733 0.318784L10.5537 0.97157ZM12.8731 2.89645L13.4234 2.34872C13.4065 2.33186 13.3889 2.31579 13.3705 2.30055L12.8731 2.89645ZM12.8637 4.58977L12.3194 4.03604C12.2974 4.05759 12.2767 4.08041 12.2573 4.10441L12.8637 4.58977ZM10.7589 5.96556C10.4901 6.29947 10.5439 6.7871 10.8788 7.05516C11.2136 7.32321 11.7033 7.26956 11.9722 6.93565L10.7589 5.96556ZM7.98729 3.23435C7.92363 2.81088 7.52777 2.51902 7.1031 2.58249C6.67831 2.64594 6.38562 3.04068 6.44928 3.46415L7.98729 3.23435ZM11.4703 7.2188C11.8958 7.16122 12.1938 6.77045 12.1361 6.34619C12.0782 5.92187 11.6864 5.62464 11.2608 5.6823L11.4703 7.2188ZM6.60843 2.86437L0.493285 10.4719L1.70683 11.4417L7.82192 3.83414L6.60843 2.86437ZM0.511118 10.4505C0.296124 10.6991 0.168099 11.0108 0.146668 11.3384L1.69872 11.4394C1.69815 11.4481 1.69474 11.4564 1.689 11.4631L0.511118 10.4505ZM0.145984 11.3531L0.000830188 14.4782L1.55439 14.5499L1.69954 11.4248L0.145984 11.3531ZM0.00410651 14.5935C0.088783 15.4122 0.794074 16.026 1.619 15.9992L1.56816 14.4493C1.56484 14.4494 1.56216 14.4485 1.56216 14.4485C1.56216 14.4485 1.55871 14.4469 1.55671 14.4452C1.5547 14.4434 1.55267 14.4403 1.55267 14.4403C1.55267 14.4403 1.55145 14.4377 1.55111 14.4344L0.00410651 14.5935ZM1.77291 15.9786L4.88339 15.2437L4.52465 13.7348L1.41425 14.4698L1.77291 15.9786ZM4.89541 15.2407C5.21216 15.1605 5.4951 14.9818 5.70309 14.7304L4.50329 13.7436C4.50578 13.7407 4.50899 13.7386 4.51262 13.7377L4.89541 15.2407ZM5.70983 14.722L11.9722 6.93565L10.7589 5.96556L4.49655 13.7519L5.70983 14.722ZM7.82493 3.83434L9.47138 1.78747L8.2581 0.81729L6.61165 2.86416L7.82493 3.83434ZM9.50083 1.74842C9.64453 1.54464 9.92374 1.48994 10.1341 1.62437L10.9733 0.318784C10.0616 -0.263706 8.85158 -0.0267033 8.22866 0.856345L9.50083 1.74842ZM10.0562 1.56748L12.3756 3.49236L13.3705 2.30055L11.0512 0.375662L10.0562 1.56748ZM12.3227 3.4442C12.4014 3.52286 12.4454 3.62965 12.4448 3.7408L14 3.74932C14.0029 3.22446 13.7953 2.72021 13.4234 2.34872L12.3227 3.4442ZM12.4448 3.7408C12.4442 3.85195 12.399 3.95824 12.3194 4.03604L13.4081 5.14351C13.784 4.77612 13.9971 4.27417 14 3.74932L12.4448 3.7408ZM12.2573 4.10441L10.7589 5.96556L11.9722 6.93565L13.4702 5.07515L12.2573 4.10441ZM6.44928 3.46415C6.81144 5.87418 9.04836 7.54692 11.4703 7.2188L11.2608 5.6823C9.68186 5.89621 8.22348 4.80562 7.98729 3.23435L6.44928 3.46415Z" fill="white"/>
</svg>
