<svg width="22" height="17" viewBox="0 0 22 17" fill="none" xmlns="http://www.w3.org/2000/svg">
<path d="M3.22222 1H18.7778C20.0051 1 21 1.95939 21 3.14286V13.8571C21 15.0406 20.0051 16 18.7778 16H3.22222C1.99492 16 1 15.0406 1 13.8571V3.14286C1 1.95939 1.99492 1 3.22222 1Z" stroke="#1C274C" stroke-linecap="round" stroke-linejoin="round"/>
<path d="M6 11V7.66667C6 6.74619 6.67157 6 7.5 6C8.32845 6 9 6.74619 9 7.66667V11" stroke="#1C274C" stroke-linecap="round" stroke-linejoin="round"/>
<path d="M16 6V11" stroke="#1C274C" stroke-linecap="round" stroke-linejoin="round"/>
<path d="M16 9H14.5C12.5 9 12.5 11 14.5 11H16" stroke="#1C274C" stroke-linecap="round" stroke-linejoin="round"/>
<path d="M6 9H9" stroke="#1C274C" stroke-linecap="round" stroke-linejoin="round"/>
</svg>
