<svg width="23" height="23" viewBox="0 0 23 23" fill="none" xmlns="http://www.w3.org/2000/svg">
<path d="M20.2765 8.58332L19.4477 5.54375C19.1281 4.37171 18.9683 3.7857 18.6406 3.34436C18.3142 2.90484 17.8706 2.56605 17.3608 2.36676C16.8487 2.16666 16.2413 2.16666 15.0265 2.16666M2.77649 8.58332L3.60529 5.54375C3.92486 4.37171 4.08465 3.7857 4.4124 3.34436C4.73881 2.90484 5.18234 2.56605 5.69225 2.36676C6.20425 2.16666 6.81166 2.16666 8.02649 2.16666" stroke="#1C274C"/>
<path d="M8.02649 2.16667C8.02649 1.52234 8.54883 1 9.19316 1H13.8598C14.5042 1 15.0265 1.52234 15.0265 2.16667C15.0265 2.81099 14.5042 3.33333 13.8598 3.33333H9.19316C8.54883 3.33333 8.02649 2.81099 8.02649 2.16667Z" stroke="#1C274C"/>
<path d="M6.85986 12.6667V17.3333" stroke="#1C274C" stroke-linecap="round" stroke-linejoin="round"/>
<path d="M16.1931 12.6667V17.3333" stroke="#1C274C" stroke-linecap="round" stroke-linejoin="round"/>
<path d="M11.5265 12.6667V17.3333" stroke="#1C274C" stroke-linecap="round" stroke-linejoin="round"/>
<path d="M2.03449 16.6977C2.6711 19.2442 2.98942 20.5174 3.93883 21.2587C4.88825 22 6.20065 22 8.82549 22H14.2279C16.8528 22 18.1652 22 19.1146 21.2587C20.064 20.5174 20.3823 19.2442 21.019 16.6977C22.0198 12.694 22.5203 10.6921 21.4694 9.3461C20.4185 8 18.355 8 14.2279 8H8.82549C4.69851 8 2.63503 8 1.58405 9.3461C0.967128 10.1362 0.884797 11.1523 1.12446 12.6667" stroke="#1C274C" stroke-linecap="round"/>
</svg>
