<svg width="22" height="22" viewBox="0 0 22 22" fill="none" xmlns="http://www.w3.org/2000/svg">
<path d="M11 7.10416C10.4305 7.10416 9.96875 7.56586 9.96875 8.13541C9.96875 8.5151 9.66093 8.82291 9.28125 8.82291C8.90156 8.82291 8.59375 8.5151 8.59375 8.13541C8.59375 6.80647 9.67111 5.72916 11 5.72916C12.3289 5.72916 13.4063 6.80647 13.4063 8.13541C13.4063 9.01847 12.9301 9.78962 12.224 10.2074C12.0436 10.3141 11.8948 10.4306 11.7978 10.545C11.7035 10.6559 11.6875 10.7283 11.6875 10.7708V11.9167C11.6875 12.2963 11.3797 12.6042 11 12.6042C10.6203 12.6042 10.3125 12.2963 10.3125 11.9167V10.7708C10.3125 10.3071 10.5155 9.93079 10.7494 9.65524C10.9804 9.38299 11.2685 9.17509 11.5239 9.02401C11.829 8.84343 12.0313 8.51266 12.0313 8.13541C12.0313 7.56586 11.5695 7.10416 11 7.10416Z" fill="#1C274C"/>
<path d="M11 15.5833C11.5063 15.5833 11.9167 15.1729 11.9167 14.6667C11.9167 14.1604 11.5063 13.75 11 13.75C10.4938 13.75 10.0834 14.1604 10.0834 14.6667C10.0834 15.1729 10.4938 15.5833 11 15.5833Z" fill="#1C274C"/>
<path fill-rule="evenodd" clip-rule="evenodd" d="M10.9474 1.14584H11.0527C13.1687 1.14583 14.8269 1.14583 16.1208 1.31978C17.4451 1.49783 18.4902 1.8694 19.3104 2.68964C20.1307 3.50988 20.5022 4.5549 20.6803 5.87924C20.8542 7.1731 20.8542 8.83139 20.8542 10.9474V11.0526C20.8542 13.1687 20.8542 14.8269 20.6803 16.1208C20.5022 17.4451 20.1307 18.4902 19.3104 19.3104C18.4902 20.1306 17.4451 20.5022 16.1208 20.6803C14.8269 20.8542 13.1687 20.8542 11.0527 20.8542H10.9474C8.83142 20.8542 7.17313 20.8542 5.87927 20.6803C4.55493 20.5022 3.50991 20.1306 2.68967 19.3104C1.86943 18.4902 1.49786 17.4451 1.31981 16.1208C1.14586 14.8269 1.14586 13.1687 1.14587 11.0526V10.9474C1.14586 8.8314 1.14586 7.1731 1.31981 5.87924C1.49786 4.5549 1.86943 3.50988 2.68967 2.68964C3.50991 1.8694 4.55493 1.49783 5.87927 1.31978C7.17313 1.14583 8.83143 1.14583 10.9474 1.14584ZM6.06249 2.68252C4.89061 2.84007 4.18412 3.13972 3.66194 3.66191C3.13975 4.18409 2.8401 4.89058 2.68255 6.06246C2.52233 7.25411 2.52087 8.81996 2.52087 11C2.52087 13.18 2.52233 14.7459 2.68255 15.9375C2.8401 17.1094 3.13975 17.8159 3.66194 18.3381C4.18412 18.8603 4.89061 19.16 6.06249 19.3175C7.25414 19.4777 8.82 19.4792 11 19.4792C13.1801 19.4792 14.7459 19.4777 15.9376 19.3175C17.1094 19.16 17.8159 18.8603 18.3381 18.3381C18.8604 17.8159 19.16 17.1094 19.3175 15.9375C19.4777 14.7459 19.4792 13.18 19.4792 11C19.4792 8.81996 19.4777 7.25411 19.3175 6.06246C19.16 4.89058 18.8604 4.18409 18.3381 3.66191C17.8159 3.13972 17.1094 2.84007 15.9376 2.68252C14.7459 2.5223 13.1801 2.52084 11 2.52084C8.82 2.52084 7.25414 2.5223 6.06249 2.68252Z" fill="#1C274C"/>
</svg>
