<svg width="21" height="21" viewBox="0 0 21 21" fill="none" xmlns="http://www.w3.org/2000/svg">
<path fill-rule="evenodd" clip-rule="evenodd" d="M14.1534 1H6.8466C5.28735 1.00862 3.79541 1.6363 2.69897 2.74496C1.60253 3.85364 0.991419 5.35247 1.00009 6.91171V14.0883C0.991419 15.6475 1.60253 17.1463 2.69897 18.255C3.79541 19.3636 5.28735 19.9914 6.8466 20H14.1534C15.7126 19.9914 17.2045 19.3636 18.3009 18.255C19.3975 17.1463 20.0085 15.6475 19.9999 14.0883V6.91171C20.0085 5.35247 19.3975 3.85364 18.3009 2.74496C17.2045 1.6363 15.7126 1.00862 14.1534 1Z" stroke="#1C274C" stroke-linecap="round" stroke-linejoin="round"/>
<path d="M5.02632 6.3947C4.4595 6.3947 4 6.85419 4 7.42099C4 7.98778 4.4595 8.44729 5.02632 8.44729V6.3947ZM10.5 8.44729C11.0668 8.44729 11.5263 7.98778 11.5263 7.42099C11.5263 6.85419 11.0668 6.3947 10.5 6.3947V8.44729ZM9.47367 7.42099C9.47367 7.98778 9.93319 8.44729 10.5 8.44729C11.0668 8.44729 11.5263 7.98778 11.5263 7.42099H9.47367ZM11.5263 5.0263C11.5263 4.45949 11.0668 4 10.5 4C9.93319 4 9.47367 4.45949 9.47367 5.0263H11.5263ZM10.5 6.3947C9.93319 6.3947 9.47367 6.85419 9.47367 7.42099C9.47367 7.98778 9.93319 8.44729 10.5 8.44729V6.3947ZM15.2895 8.44729C15.8563 8.44729 16.3158 7.98778 16.3158 7.42099C16.3158 6.85419 15.8563 6.3947 15.2895 6.3947V8.44729ZM15.2895 6.3947C14.7227 6.3947 14.2632 6.85419 14.2632 7.42099C14.2632 7.98778 14.7227 8.44729 15.2895 8.44729V6.3947ZM15.9737 8.44729C16.5405 8.44729 17 7.98778 17 7.42099C17 6.85419 16.5405 6.3947 15.9737 6.3947V8.44729ZM16.1293 8.01091C16.4551 7.54719 16.3433 6.90706 15.8795 6.58122C15.4156 6.25539 14.7756 6.36722 14.4497 6.83101L16.1293 8.01091ZM9.50596 12.2491C9.07381 12.616 9.02099 13.2636 9.38787 13.6956C9.75474 14.1278 10.4024 14.1806 10.8344 13.8137L9.50596 12.2491ZM6.80474 14.4687C6.3515 14.809 6.26002 15.4524 6.6004 15.9056C6.9408 16.3588 7.58415 16.4504 8.03737 16.1099L6.80474 14.4687ZM10.8514 13.7936C11.2753 13.4175 11.3141 12.7688 10.9379 12.3449C10.5618 11.9208 9.91307 11.8821 9.48913 12.2583L10.8514 13.7936ZM9.36283 13.6597C9.71287 14.1055 10.3579 14.1832 10.8039 13.8333C11.2497 13.4833 11.3275 12.8382 10.9776 12.3922L9.36283 13.6597ZM9.38595 9.74276C9.15674 9.22427 8.55067 8.99 8.03231 9.21921C7.51389 9.44841 7.2795 10.0545 7.50875 10.5728L9.38595 9.74276ZM10.9937 12.4189C10.6554 11.9641 10.0126 11.8697 9.55769 12.2079C9.10296 12.5462 9.0084 13.1891 9.34668 13.6439L10.9937 12.4189ZM13.0934 16.8777C13.5928 17.1458 14.215 16.9585 14.4832 16.459C14.7513 15.9597 14.5639 15.3374 14.0646 15.0692L13.0934 16.8777ZM5.02632 8.44729H10.5V6.3947H5.02632V8.44729ZM11.5263 7.42099V5.0263H9.47367V7.42099H11.5263ZM10.5 8.44729H15.2895V6.3947H10.5V8.44729ZM15.2895 8.44729H15.9737V6.3947H15.2895V8.44729ZM14.4497 6.83101C13.0386 8.83961 11.3773 10.6603 9.50596 12.2491L10.8344 13.8137C12.8386 12.1121 14.6178 10.1622 16.1293 8.01091L14.4497 6.83101ZM8.03737 16.1099C8.73636 15.585 9.75146 14.7694 10.8514 13.7936L9.48913 12.2583C8.42956 13.1982 7.45773 13.9782 6.80474 14.4687L8.03737 16.1099ZM10.9776 12.3922C10.3389 11.5787 9.80428 10.6886 9.38595 9.74276L7.50875 10.5728C7.99604 11.6748 8.61895 12.7118 9.36283 13.6597L10.9776 12.3922ZM9.34668 13.6439C10.3432 14.9837 11.6224 16.0877 13.0934 16.8777L14.0646 15.0692C12.8589 14.4219 11.8105 13.5169 10.9937 12.4189L9.34668 13.6439Z" fill="#1C274C"/>
</svg>
