<svg width="34" height="34" viewBox="0 0 34 34" fill="none" xmlns="http://www.w3.org/2000/svg">
<path d="M0 25.5C0 26.5019 0.398015 27.4628 1.10649 28.1713C1.81496 28.8798 2.77585 29.2778 3.77778 29.2778H30.2222C31.2242 29.2778 32.185 28.8798 32.8935 28.1713C33.602 27.4628 34 26.5019 34 25.5V21.7222H0V25.5Z" fill="#138808"/>
<path d="M0 12.2778H34V21.7222H0V12.2778Z" fill="#EEEEEE"/>
<path d="M34 12.2778V8.50001C34 7.49808 33.602 6.53718 32.8935 5.82871C32.185 5.12024 31.2242 4.72223 30.2222 4.72223H3.77778C2.77585 4.72223 1.81496 5.12024 1.10649 5.82871C0.398015 6.53718 0 7.49808 0 8.50001L0 12.2778H34Z" fill="#FF9933"/>
<path d="M17.0004 20.7778C19.0868 20.7778 20.7782 19.0864 20.7782 17C20.7782 14.9136 19.0868 13.2222 17.0004 13.2222C14.914 13.2222 13.2227 14.9136 13.2227 17C13.2227 19.0864 14.914 20.7778 17.0004 20.7778Z" fill="#000080"/>
<path d="M17.0003 19.8334C18.5651 19.8334 19.8337 18.5648 19.8337 17C19.8337 15.4352 18.5651 14.1667 17.0003 14.1667C15.4355 14.1667 14.167 15.4352 14.167 17C14.167 18.5648 15.4355 19.8334 17.0003 19.8334Z" fill="#EEEEEE"/>
<path d="M17.0003 14.1667L17.1382 16.3049L18.0836 14.383L17.3942 16.4107L19.0035 14.9959L17.5897 16.6062L19.6174 15.9158L17.6954 16.8621L19.8337 17L17.6954 17.1379L19.6174 18.0833L17.5897 17.3939L19.0035 19.0032L17.3942 17.5894L18.0836 19.6171L17.1382 17.6951L17.0003 19.8334L16.8624 17.6951L15.9161 19.6171L16.6065 17.5894L14.9962 19.0032L16.411 17.3939L14.3833 18.0833L16.3052 17.1379L14.167 17L16.3052 16.8621L14.3833 15.9158L16.411 16.6062L14.9962 14.9959L16.6065 16.4107L15.9161 14.383L16.8624 16.3049L17.0003 14.1667Z" fill="#6666B3"/>
<path d="M17.0001 17.9444C17.5217 17.9444 17.9446 17.5216 17.9446 17C17.9446 16.4784 17.5217 16.0555 17.0001 16.0555C16.4785 16.0555 16.0557 16.4784 16.0557 17C16.0557 17.5216 16.4785 17.9444 17.0001 17.9444Z" fill="#000080"/>
</svg>
