<svg width="18" height="17" viewBox="0 0 18 17" fill="none" xmlns="http://www.w3.org/2000/svg">
<path d="M8.99996 14.275L4.84996 16.775C4.66663 16.8917 4.47496 16.9417 4.27496 16.925C4.07496 16.9083 3.89996 16.8417 3.74996 16.725C3.59996 16.6083 3.4833 16.4627 3.39996 16.288C3.31663 16.1133 3.29996 15.9173 3.34996 15.7L4.44996 10.975L0.774963 7.8C0.608296 7.65 0.504296 7.479 0.462963 7.287C0.421629 7.095 0.433963 6.90766 0.499963 6.725C0.565963 6.54233 0.665963 6.39233 0.799963 6.275C0.933963 6.15766 1.1173 6.08266 1.34996 6.05L6.19996 5.625L8.07496 1.175C8.1583 0.974997 8.28763 0.824997 8.46296 0.724997C8.6383 0.624997 8.8173 0.574997 8.99996 0.574997C9.18263 0.574997 9.36163 0.624997 9.53696 0.724997C9.7123 0.824997 9.84163 0.974997 9.92496 1.175L11.8 5.625L16.65 6.05C16.8833 6.08333 17.0666 6.15833 17.2 6.275C17.3333 6.39166 17.4333 6.54166 17.5 6.725C17.5666 6.90833 17.5793 7.096 17.538 7.288C17.4966 7.48 17.3923 7.65066 17.225 7.8L13.55 10.975L14.65 15.7C14.7 15.9167 14.6833 16.1127 14.6 16.288C14.5166 16.4633 14.4 16.609 14.25 16.725C14.1 16.841 13.925 16.9077 13.725 16.925C13.525 16.9423 13.3333 16.8923 13.15 16.775L8.99996 14.275Z" fill="#CACACA"/>
</svg>
