<svg width="27" height="27" viewBox="0 0 27 27" fill="none" xmlns="http://www.w3.org/2000/svg">
<g clip-path="url(#clip0_2513_94)">
<path d="M23.6014 21.816V23.5883L9.40447 23.5769L11.3915 21.816H23.6014ZM20.4141 3.375C21.1098 3.375 21.4709 3.429 22.4189 4.22339C23.3867 5.03381 23.5609 5.66578 23.6014 6.36947C23.6444 7.12673 23.3888 8.04684 22.6783 8.76614L9.1948 22.2497C8.97542 22.4501 8.92944 22.4395 8.78262 22.483L4.46853 23.5617C3.84753 23.6879 3.2645 23.1192 3.39275 22.4859L4.47148 18.1718C4.51367 18.0309 4.52759 17.9537 4.70478 17.7601C9.21716 13.2473 13.6464 8.65012 18.2427 4.22339C18.8422 3.66019 19.718 3.375 20.4141 3.375ZM6.75594 18.2174L6.13283 18.8405L5.47217 21.4823L8.11395 20.8216C8.32194 20.6141 8.5295 20.4069 8.73791 20.1998L6.75594 18.2174ZM19.4864 9.53817L17.4606 7.51275L7.97136 17.002L9.95923 18.9903C13.144 15.8482 16.37 12.7461 19.4864 9.53817ZM20.6787 8.29955C20.9394 8.02617 21.1992 7.75195 21.4583 7.47647C22.1641 6.70612 21.6452 5.17556 20.485 5.12325C20.4614 5.12241 20.4378 5.12241 20.4141 5.12241C20.0509 5.12916 19.6974 5.27934 19.4388 5.53458L18.6764 6.29733L20.6787 8.29955Z" fill="white"/>
</g>
<defs>
<clipPath id="clip0_2513_94">
<rect width="27" height="27" fill="white"/>
</clipPath>
</defs>
</svg>
