<svg width="27" height="27" viewBox="0 0 27 27" fill="none" xmlns="http://www.w3.org/2000/svg">
<path d="M6.3 22.41L8.0145 21.0386L8.02575 21.0296C8.3835 20.7428 8.56462 20.5987 8.766 20.4964C8.94675 20.4041 9.13725 20.3374 9.3375 20.2961C9.56138 20.25 9.79425 20.25 10.2622 20.25H20.0284C21.2861 20.25 21.9161 20.25 22.3965 20.0047C22.8198 19.789 23.164 19.4448 23.3797 19.0215C23.625 18.54 23.625 17.91 23.625 16.6545V8.09663C23.625 6.83887 23.625 6.20887 23.3797 5.7285C23.1637 5.30498 22.8191 4.96077 22.3954 4.74525C21.915 4.5 21.285 4.5 20.025 4.5H6.975C5.715 4.5 5.085 4.5 4.6035 4.74525C4.18015 4.96096 3.83596 5.30515 3.62025 5.7285C3.375 6.21 3.375 6.84 3.375 8.1V21.0049C3.375 22.2041 3.375 22.8037 3.62025 23.1109C3.72571 23.2433 3.85969 23.3502 4.01221 23.4236C4.16473 23.4971 4.33185 23.5351 4.50112 23.535C4.89487 23.535 5.36287 23.1593 6.3 22.41Z" stroke="#818181" stroke-width="2" stroke-linecap="round" stroke-linejoin="round"/>
</svg>
